999
DXF generated by OpenJsCad
  0
SECTION
  2
HEADER
  0
ENDSEC
  0
SECTION
  2
TABLES
  0
TABLE
  2
LTYPE
  70
1
  0
LTYPE
  2
CONTINUOUS
  3
Solid Line
  72
65
  73
0
  40
0.0
  0
ENDTAB
  0
TABLE
  2
LAYER
  70
1
  0
LAYER
  2
OpenJsCad
  62
7
  6
continuous
  0
ENDTAB
  0
TABLE
  2
STYLE
  70
0
  0
ENDTAB
  0
TABLE
  2
VIEW
  70
0
  0
ENDTAB
  0
ENDSEC
  0
SECTION
  2
BLOCKS
  0
ENDSEC
  0
SECTION
  2
ENTITIES
  0
LWPOLYLINE
  8
OpenJsCad
  90
951
  70
1
 10
65.49098301864181
 20
-9.322441826780313
 30
0.0
 10
65.68638287258885
 20
-8.298119920667245
 30
0.0
 10
65.75186036362047
 20
-7.257385003200765
 30
0.0
 10
64.8706171968412
 20
-6.755105312700461
 30
0.0
 10
63.987027480703055
 20
-6.299407575559362
 30
0.0
 10
63.18102413712061
 20
-5.925585772873974
 30
0.0
 10
62.45774603547022
 20
-5.626264471015833
 30
0.0
 10
61.821847335994036
 20
-5.393788600738296
 30
0.0
 10
61.18764250444384
 20
-5.191610932383924
 30
0.0
 10
60.97241489743495
 20
-5.083247714967248
 30
0.0
 10
60.873508794567705
 20
-4.970643967205385
 30
0.0
 10
61.0164898769933
 20
-2.6980247407630986
 30
0.0
 10
61.128729067516616
 20
-2.5987051288794323
 30
0.0
 10
61.35584105299541
 20
-2.518171559727844
 30
0.0
 10
62.01038457095511
 20
-2.397075064963724
 30
0.0
 10
62.67040597179625
 20
-2.2461315765849874
 30
0.0
 10
63.425495716219174
 20
-2.0398212958410484
 30
0.0
 10
64.27199577799985
 20
-1.769966195041682
 30
0.0
 10
65.20573219623527
 20
-1.4286049269357557
 30
0.0
 10
66.14297883519681
 20
-1.0407349174664553
 30
0.0
 10
66.20845632622847
 20
-7.105427357601002e-15
 30
0.0
 10
66.14297883519687
 20
1.040734917466466
 30
0.0
 10
65.20573219623809
 20
1.4286049269346095
 30
0.0
 10
64.27199577800333
 20
1.7699661950402752
 30
0.0
 10
63.42549571621917
 20
2.039821295841501
 30
0.0
 10
62.67040597179643
 20
2.2461315765854555
 30
0.0
 10
62.010384570951786
 20
2.397075064963992
 30
0.0
 10
61.35584105299683
 20
2.518171559735557
 30
0.0
 10
61.1287290675163
 20
2.598705128877646
 30
0.0
 10
61.01648987699353
 20
2.698024740763702
 30
0.0
 10
60.8735087945674
 20
4.970643967205954
 30
0.0
 10
60.97241489743549
 20
5.083247714965515
 30
0.0
 10
61.18764250444148
 20
5.191610932391399
 30
0.0
 10
61.821847335997305
 20
5.393788600738978
 30
0.0
 10
62.45774603546999
 20
5.626264471016275
 30
0.0
 10
63.181024137120566
 20
5.925585772874424
 30
0.0
 10
63.98702748069978
 20
6.299407575557531
 30
0.0
 10
64.87061719683854
 20
6.75510531269897
 30
0.0
 10
65.75186036362052
 20
7.257385003200779
 30
0.0
 10
65.68638287258887
 20
8.298119920667222
 30
0.0
 10
65.49098301864174
 20
9.322441826780343
 30
0.0
 10
64.51251384688398
 20
9.589785213464705
 30
0.0
 10
63.54335630765524
 20
9.811426541417573
 30
0.0
 10
62.669709339318324
 20
9.973059164191376
 30
0.0
 10
61.89471616846153
 20
10.083104787450026
 30
0.0
 10
61.22098099801743
 20
10.150135424948562
 30
0.0
 10
60.55642133594119
 20
10.188240982075232
 30
0.0
 10
60.3210066636702
 20
10.239674840448941
 30
0.0
 10
60.19720446457489
 20
10.324143986849087
 30
0.0
 10
59.770516114379646
 20
12.56092265049339
 30
0.0
 10
59.85452932126664
 20
12.68503470576046
 30
0.0
 10
60.054478281866594
 20
12.819518618788784
 30
0.0
 10
60.658342637969305
 20
13.099588998114896
 30
0.0
 10
61.26009013371539
 20
13.409930966942127
 30
0.0
 10
61.94015006486519
 20
13.797542814178303
 30
0.0
 10
62.692945536031644
 20
14.269435925606517
 30
0.0
 10
63.51245381241933
 20
14.83228350624812
 30
0.0
 10
64.32379577585226
 20
15.441051627015856
 30
0.0
 10
64.12839592190521
 20
16.465373533128954
 30
0.0
 10
63.806155277465805
 20
17.457128259529085
 30
0.0
 10
62.801894616256725
 20
17.59972885851845
 30
0.0
 10
61.81260014937432
 20
17.698154830174598
 30
0.0
 10
60.92558420906671
 20
17.749015931905188
 30
0.0
 10
60.14290971703877
 20
17.76106141246167
 30
0.0
 10
59.466085983102985
 20
17.743122085884696
 30
0.0
 10
58.80199067976512
 20
17.697635757967426
 30
0.0
 10
58.56198595071526
 20
17.719158762901106
 30
0.0
 10
58.428573177683
 20
17.78744531491719
 30
0.0
 10
57.72490668989251
 20
19.953108080051063
 30
0.0
 10
57.79270206233872
 20
20.086771121573133
 30
0.0
 10
57.97421906198027
 20
20.245254838558644
 30
0.0
 10
58.53821964100305
 20
20.598801051675384
 30
0.0
 10
59.09632601554807
 20
20.982114840814837
 30
0.0
 10
59.72244282483477
 20
21.45190436305003
 30
0.0
 10
60.41015838930995
 20
22.01442674696085
 30
0.0
 10
61.152661090877395
 20
22.675547728527043
 30
0.0
 10
61.88130650352603
 20
23.381203642635818
 30
0.0
 10
61.559065859086566
 20
24.37295836903592
 30
0.0
 10
61.115066351614615
 20
25.316505351242107
 30
0.0
 10
60.10085199149774
 20
25.332114265904956
 30
0.0
 10
59.107022361680265
 20
25.305772644894535
 30
0.0
 10
58.22062622065826
 20
25.24506011562467
 30
0.0
 10
57.44261365174552
 20
25.158915489054994
 30
0.0
 10
56.77337526891713
 20
25.05628911229906
 30
0.0
 10
56.12021750396257
 20
24.927928245901324
 30
0.0
 10
55.879407736082854
 20
24.919200966749944
 30
0.0
 10
55.73848838824128
 20
24.97022800466426
 30
0.0
 10
54.76894100371796
 20
27.030621075777326
 30
0.0
 10
54.81944936820094
 20
27.171727157543156
 30
0.0
 10
54.97967177536673
 20
27.35171129559541
 30
0.0
 10
55.49491395126078
 20
27.773157707523655
 30
0.0
 10
56.00057753368159
 20
28.223398229540045
 30
0.0
 10
56.56287698499867
 20
28.76795656536995
 30
0.0
 10
57.17466695750943
 20
29.412236907734517
 30
0.0
 10
57.82845437310331
 20
30.161205017411476
 30
0.0
 10
58.46291206153823
 20
30.952620109557284
 30
0.0
 10
58.018912554066375
 20
31.896167091763488
 30
0.0
 10
57.46015632102743
 20
32.776626030218814
 30
0.0
 10
56.45198302832411
 20
32.66499709864658
 30
0.0
 10
55.46929152251883
 20
32.51430330806864
 30
0.0
 10
54.597494177433745
 20
32.34297462065282
 30
0.0
 10
53.836413254610136
 20
32.159998439178295
 30
0.0
 10
53.18531451196997
 20
31.974303491510863
 30
0.0
 10
52.553394973529585
 20
31.76509241417482
 30
0.0
 10
52.31557788071226
 20
31.72625248534403
 30
0.0
 10
52.169374340357976
 20
31.759215282286593
 30
0.0
 10
50.949236400535305
 20
33.68184502982823
 30
0.0
 10
50.98166120997492
 20
33.82816882463569
 30
0.0
 10
51.11806222159172
 20
34.02681492638029
 30
0.0
 10
51.576420317452424
 20
34.50951507544404
 30
0.0
 10
52.02166649098546
 20
35.019581768344516
 30
0.0
 10
52.511280786084235
 20
35.63032090750972
 30
0.0
 10
53.03749687329847
 20
36.34619852245452
 30
0.0
 10
53.59225838482121
 20
37.17120208574078
 30
0.0
 10
54.12252257228927
 20
38.035895267152085
 30
0.0
 10
53.56376633925031
 20
38.91635420560737
 30
0.0
 10
52.89906530022407
 20
39.719839736891636
 30
0.0
 10
51.91283257001375
 20
39.48273341401912
 30
0.0
 10
50.95677682029867
 20
39.2100639849712
 30
0.0
 10
50.11332703606897
 20
38.93082109515676
 30
0.0
 10
49.38118046013513
 20
38.6538990024639
 30
0.0
 10
48.75848957380218
 20
38.38806400413848
 30
0.0
 10
48.15777401048761
 20
38.10130209953035
 30
0.0
 10
47.92670011035144
 20
38.03296204989966
 30
0.0
 10
47.77751809465359
 20
38.04734076287167
 30
0.0
 10
46.326031903717634
 20
39.801886167199804
 30
0.0
 10
46.33986179949939
 20
39.95112006139519
 30
0.0
 10
46.45029029013199
 20
40.16529535914219
 30
0.0
 10
46.84453572497777
 20
40.70163677563963
 30
0.0
 10
47.222342691489246
 20
41.26348558297808
 30
0.0
 10
47.631550320454615
 20
41.93077380441606
 30
0.0
 10
48.06389378033071
 20
42.70695887430886
 30
0.0
 10
48.51088046734711
 20
43.59498709217815
 30
0.0
 10
48.92858857084751
 20
44.51932163484145
 30
0.0
 10
48.26388753182128
 20
45.32280716612568
 30
0.0
 10
47.50372441926635
 20
46.03664784343158
 30
0.0
 10
46.554985730851286
 20
45.677803437610876
 30
0.0
 10
45.64064330751942
 20
45.287458529873874
 30
0.0
 10
44.838842791094905
 20
44.9047052648448
 30
0.0
 10
44.14717695091647
 20
44.53820448776064
 30
0.0
 10
43.562714128145686
 20
44.19642181550294
 30
0.0
 10
43.00267618324049
 20
43.83663149016166
 30
0.0
 10
42.78198964922748
 20
43.7398690831381
 30
0.0
 10
42.632181847690646
 20
43.73543695124656
 30
0.0
 10
40.9722382099483
 20
45.29422778322033
 30
0.0
 10
40.96725508635412
 20
45.44401826914415
 30
0.0
 10
41.04996953273846
 20
45.670345090505975
 30
0.0
 10
41.37388482055099
 20
46.251869349904105
 30
0.0
 10
41.67829433848808
 20
46.85663958035659
 30
0.0
 10
42.00064185256247
 20
47.56995335019661
 30
0.0
 10
42.33229437046871
 20
48.39420497281471
 30
0.0
 10
42.664456985907634
 20
49.331253109788896
 30
0.0
 10
42.963021499121375
 20
50.30065170579564
 30
0.0
 10
42.20285838656643
 20
51.0144923831015
 30
0.0
 10
41.359221426867194
 20
51.627430512520114
 30
0.0
 10
40.462938956112815
 20
51.15250721439439
 30
0.0
 10
39.60472958538181
 20
50.65064280034405
 30
0.0
 10
38.857223209878896
 20
50.17041540773558
 30
0.0
 10
38.21694608893663
 20
49.720115882451665
 30
0.0
 10
37.67992865758429
 20
49.30777565317427
 30
0.0
 10
37.16940046403007
 20
48.880631015458796
 30
0.0
 10
36.96258165461335
 20
48.7569722520042
 30
0.0
 10
36.8145106257586
 20
48.73379917261667
 30
0.0
 10
34.97228784397932
 20
50.07225236963932
 30
0.0
 10
34.94857028784507
 20
50.22023716184808
 30
0.0
 10
35.002266233750454
 20
50.455146197650755
 30
0.0
 10
35.25074303694333
 20
51.07268231499311
 30
0.0
 10
35.47695438636273
 20
51.71083638075317
 30
0.0
 10
35.7073581726881
 20
52.45892631473186
 30
0.0
 10
35.933089390297496
 20
53.31824554960253
 30
0.0
 10
36.14518953128914
 20
54.28953579679609
 30
0.0
 10
36.31990191348906
 20
55.28871045119661
 30
0.0
 10
35.47626495378986
 20
55.90164858061522
 30
0.0
 10
34.56245880576514
 20
56.404017761694156
 30
0.0
 10
33.732767462648376
 20
55.82050539538024
 30
0.0
 10
32.944225618964076
 20
55.21503617662542
 30
0.0
 10
32.26280200646311
 20
54.64490812929292
 30
0.0
 10
31.684011157437283
 20
54.11791134831888
 30
0.0
 10
31.202908203194465
 20
53.64151641375761
 30
0.0
 10
30.749941095578336
 20
53.153753789768544
 30
0.0
 10
30.560251666929982
 20
53.005148842452755
 30
0.0
 10
30.41625257933571
 20
52.9636002688741
 30
0.0
 10
28.420803607278703
 20
54.060607624475416
 30
0.0
 10
28.378725658632792
 20
54.204452914394146
 30
0.0
 10
28.40255628691589
 20
54.444239508815194
 30
0.0
 10
28.571675977869898
 20
55.08804857063309
 30
0.0
 10
28.716121670659152
 20
55.74952240086893
 30
0.0
 10
28.850948123888625
 20
56.520590673840196
 30
0.0
 10
28.96719812505418
 20
57.40142554329708
 30
0.0
 10
29.055890845672618
 20
58.39164007329112
 30
0.0
 10
29.103995778223332
 20
59.40483320490753
 30
0.0
 10
28.19018963019862
 20
59.90720238598648
 30
0.0
 10
27.220625562684045
 20
60.29107995663932
 30
0.0
 10
26.47061007531943
 20
59.60818086072733
 30
0.0
 10
25.76417153460881
 20
58.90865544853757
 30
0.0
 10
25.159577142541664
 20
58.25761800636547
 30
0.0
 10
24.651400442874312
 20
57.66223502374988
 30
0.0
 10
24.233799246726402
 20
57.1292984166073
 30
0.0
 10
23.845536786924907
 20
56.588610114300224
 30
0.0
 10
23.675968254649668
 20
56.41740257191471
 30
0.0
 10
23.53831205994812
 20
56.35813374997018
 30
0.0
 10
21.421106319926164
 20
57.19639480283189
 30
0.0
 10
21.36133157315489
 20
57.333832064309554
 30
0.0
 10
21.354921060571947
 20
57.5747146395134
 30
0.0
 10
21.442016520733542
 20
58.23464339230908
 30
0.0
 10
21.502418562029696
 20
58.90900514957257
 30
0.0
 10
21.53954138845441
 20
59.69089155425778
 30
0.0
 10
21.544476841213356
 20
60.57935076622431
 30
0.0
 10
21.50836340427198
 20
61.57287330435532
 30
0.0
 10
21.429102243650636
 20
62.58410625224976
 30
0.0
 10
20.45953817613607
 20
62.96798382290262
 30
0.0
 10
19.44950679366589
 20
63.22731580452292
 30
0.0
 10
18.790995354326707
 20
62.455799705699505
 30
0.0
 10
18.1778010743827
 20
61.67325003370127
 30
0.0
 10
17.659570717479458
 20
60.95157044606353
 30
0.0
 10
17.23002241729438
 20
60.2971908071068
 30
0.0
 10
16.882508799567496
 20
59.71611725603845
 30
0.0
 10
16.56507411850845
 20
59.131030252932284
 30
0.0
 10
16.41830067965564
 20
58.939920160694875
 30
0.0
 10
16.28915829826908
 20
58.86386579511202
 30
0.0
 10
14.083585389559723
 20
59.43016066767761
 30
0.0
 10
14.007056528127373
 20
59.55902243299968
 30
0.0
 10
13.970505972291281
 20
59.797202126879085
 30
0.0
 10
13.974203654225406
 20
60.46284309999863
 30
0.0
 10
13.949609467754785
 20
61.13945769653353
 30
0.0
 10
13.888443218225923
 20
61.91983141725451
 30
0.0
 10
13.78198628753996
 20
62.80190343921816
 30
0.0
 10
13.62163622351245
 20
63.78306554155822
 30
0.0
 10
13.4162589655704
 20
64.77639055806118
 30
0.0
 10
12.406227583100222
 20
65.0357225396814
 30
0.0
 10
11.371657683939448
 20
65.1664191120014
 30
0.0
 10
10.815035411399743
 20
64.3184532800265
 30
0.0
 10
10.304755832321572
 20
63.465220624019715
 30
0.0
 10
9.88106231288641
 20
62.68428020912387
 30
0.0
 10
9.536916645477236
 20
61.98122387163979
 30
0.0
 10
9.264971103517507
 20
61.36117725366254
 30
0.0
 10
9.023370335747497
 20
60.740918721310294
 30
0.0
 10
8.901706695126034
 20
60.532919999539224
 30
0.0
 10
8.783114779554843
 20
60.44127951309595
 30
0.0
 10
6.523957904473827
 20
60.72667739693692
 30
0.0
 10
6.431881834241313
 20
60.84493143908597
 30
0.0
 10
6.365767659251849
 20
61.076652015586795
 30
0.0
 10
6.286009248305517
 20
61.73750765324946
 30
0.0
 10
6.1768066990806165
 20
62.40570447267846
 30
0.0
 10
6.018316001892197
 20
63.17225854968676
 30
0.0
 10
5.802145577152528
 20
64.03403257893687
 30
0.0
 10
5.5200877023370865
 20
64.98736073301427
 30
0.0
 10
5.1918332691184945
 20
65.94711248923184
 30
0.0
 10
4.157263369957744
 20
66.07780906155187
 30
0.0
 10
3.114470739438263
 20
66.0778090615519
 30
0.0
 10
2.668515899446007
 20
65.16676642414588
 30
0.0
 10
2.269198435021982
 20
64.25630677281225
 30
0.0
 10
1.9467236529586296
 20
63.428421427512404
 30
0.0
 10
1.6934080010830617
 20
62.68777600992859
 30
0.0
 10
1.501319278539581
 20
62.03853483060583
 30
0.0
 10
1.3393626124916482
 20
61.39288661658719
 30
0.0
 10
1.2447274783924611
 20
61.1712795293772
 30
0.0
 10
1.1385562939885807
 20
61.065498147288096
 30
0.0
 10
-1.1385562939891705
 20
61.06549814728783
 30
0.0
 10
-1.2447274783907007
 20
61.17127952937763
 30
0.0
 10
-1.33936261249926
 20
61.3928866165853
 30
0.0
 10
-1.5013192785400593
 20
62.03853483060913
 30
0.0
 10
-1.6934080010835209
 20
62.68777600992839
 30
0.0
 10
-1.9467236529590843
 20
63.42842142751239
 30
0.0
 10
-2.269198435020362
 20
64.25630677280886
 30
0.0
 10
-2.6685158994446883
 20
65.16676642414313
 30
0.0
 10
-3.1144707394382736
 20
66.0778090615519
 30
0.0
 10
-4.1572633699577155
 20
66.0778090615519
 30
0.0
 10
-5.191833269118487
 20
65.94711248923186
 30
0.0
 10
-5.520087702336106
 20
64.98736073301716
 30
0.0
 10
-5.802145577151331
 20
64.03403257894044
 30
0.0
 10
-6.018316001892634
 20
63.17225854968672
 30
0.0
 10
-6.176806699081083
 20
62.40570447267861
 30
0.0
 10
-6.286009248305564
 20
61.737507653246126
 30
0.0
 10
-6.365767659259625
 20
61.07665201558772
 30
0.0
 10
-6.4318818342394986
 20
60.84493143908576
 30
0.0
 10
-6.523957904474431
 20
60.726677396937106
 30
0.0
 10
-8.78311477955538
 20
60.44127951309561
 30
0.0
 10
-8.901706695124325
 20
60.53291999953987
 30
0.0
 10
-9.023370335754796
 20
60.740918721307466
 30
0.0
 10
-9.26497110351838
 20
61.36117725366575
 30
0.0
 10
-9.53691664547765
 20
61.981223871639536
 30
0.0
 10
-9.881062312886845
 20
62.684280209123806
 30
0.0
 10
-10.304755832319525
 20
63.46522062401656
 30
0.0
 10
-10.815035411398076
 20
64.31845328002396
 30
0.0
 10
-11.371657683939446
 20
65.16641911200144
 30
0.0
 10
-12.406227583100208
 20
65.0357225396814
 30
0.0
 10
-13.416258965570403
 20
64.77639055806117
 30
0.0
 10
-13.621636223511853
 20
63.78306554156121
 30
0.0
 10
-13.78198628753923
 20
62.80190343922184
 30
0.0
 10
-13.888443218226364
 20
61.919831417254414
 30
0.0
 10
-13.949609467755279
 20
61.139457696533626
 30
0.0
 10
-13.974203654225047
 20
60.46284309999531
 30
0.0
 10
-13.970505972299124
 20
59.797202126879036
 30
0.0
 10
-14.00705652812556
 20
59.55902243299972
 30
0.0
 10
-14.083585389560362
 20
59.43016066767773
 30
0.0
 10
-16.28915829826958
 20
58.863865795111614
 30
0.0
 10
-16.418300679654042
 20
58.939920160695735
 30
0.0
 10
-16.565074118515348
 20
59.13103025292856
 30
0.0
 10
-16.88250879956878
 20
59.716117256041535
 30
0.0
 10
-17.23002241729477
 20
60.29719080710649
 30
0.0
 10
-17.659570717479895
 20
60.951570446063414
 30
0.0
 10
-18.177801074380287
 20
61.6732500336984
 30
0.0
 10
-18.790995354324746
 20
62.45579970569719
 30
0.0
 10
-19.449506793665897
 20
63.22731580452288
 30
0.0
 10
-20.459538176136085
 20
62.96798382290265
 30
0.0
 10
-21.429102243650664
 20
62.584106252249825
 30
0.0
 10
-21.508363404271762
 20
61.57287330435836
 30
0.0
 10
-21.544476841213093
 20
60.57935076622805
 30
0.0
 10
-21.539541388454836
 20
59.69089155425763
 30
0.0
 10
-21.502418562030197
 20
58.90900514957259
 30
0.0
 10
-21.44201652073277
 20
58.23464339230584
 30
0.0
 10
-21.354921060579724
 20
57.57471463951237
 30
0.0
 10
-21.361331573153098
 20
57.33383206430981
 30
0.0
 10
-21.42110631992681
 20
57.196394802831925
 30
0.0
 10
-23.538312059948566
 20
56.35813374996971
 30
0.0
 10
-23.67596825464819
 20
56.41740257191576
 30
0.0
 10
-23.845536786931287
 20
56.58861011429566
 30
0.0
 10
-24.233799246728065
 20
57.129298416610204
 30
0.0
 10
-24.65140044287466
 20
57.66223502374952
 30
0.0
 10
-25.159577142542084
 20
58.25761800636529
 30
0.0
 10
-25.76417153460606
 20
58.90865544853502
 30
0.0
 10
-26.470610075317197
 20
59.60818086072527
 30
0.0
 10
-27.220625562684067
 20
60.291079956639365
 30
0.0
 10
-28.190189630198624
 20
59.90720238598651
 30
0.0
 10
-29.10399577822337
 20
59.40483320490756
 30
0.0
 10
-29.055890845672796
 20
58.39164007329415
 30
0.0
 10
-28.9671981250544
 20
57.40142554330082
 30
0.0
 10
-28.85094812388904
 20
56.52059067383998
 30
0.0
 10
-28.716121670659668
 20
55.74952240086889
 30
0.0
 10
-28.571675977868736
 20
55.088048570629965
 30
0.0
 10
-28.402556286923488
 20
54.44423950881319
 30
0.0
 10
-28.37872565863106
 20
54.204452914394615
 30
0.0
 10
-28.420803607279364
 20
54.06060762447536
 30
0.0
 10
-30.416252579336106
 20
52.96360026887358
 30
0.0
 10
-30.560251666928657
 20
53.00514884245398
 30
0.0
 10
-30.74994109558411
 20
53.153753789763215
 30
0.0
 10
-31.20290820319649
 20
53.64151641376027
 30
0.0
 10
-31.6840111574376
 20
54.11791134831847
 30
0.0
 10
-32.26280200646351
 20
54.64490812929269
 30
0.0
 10
-32.944225618961035
 20
55.21503617662323
 30
0.0
 10
-33.73276746264591
 20
55.82050539537847
 30
0.0
 10
-34.56245880576518
 20
56.40401776169421
 30
0.0
 10
-35.47626495378988
 20
55.90164858061528
 30
0.0
 10
-36.31990191348911
 20
55.28871045119667
 30
0.0
 10
-36.14518953128968
 20
54.289535796799086
 30
0.0
 10
-35.93308939029818
 20
53.318245549606225
 30
0.0
 10
-35.70735817268848
 20
52.45892631473161
 30
0.0
 10
-35.47695438636322
 20
51.71083638075307
 30
0.0
 10
-35.25074303694177
 20
51.07268231499016
 30
0.0
 10
-35.00226623375772
 20
50.45514619764782
 30
0.0
 10
-34.948570287843395
 20
50.22023716184878
 30
0.0
 10
-34.97228784397996
 20
50.0722523696392
 30
0.0
 10
-36.81451062575892
 20
48.733799172616116
 30
0.0
 10
-36.96258165461218
 20
48.75697225200559
 30
0.0
 10
-37.169400464035114
 20
48.8806310154528
 30
0.0
 10
-37.679928657586615
 20
49.30777565317668
 30
0.0
 10
-38.21694608893688
 20
49.72011588245124
 30
0.0
 10
-38.85722320987926
 20
50.17041540773531
 30
0.0
 10
-39.60472958537851
 20
50.65064280034228
 30
0.0
 10
-40.46293895611014
 20
51.152507214392955
 30
0.0
 10
-41.35922142686725
 20
51.62743051252017
 30
0.0
 10
-42.202858386566454
 20
51.014492383101555
 30
0.0
 10
-42.96302149912135
 20
50.300651705795616
 30
0.0
 10
-42.664456985908544
 20
49.33125310979179
 30
0.0
 10
-42.33229437046984
 20
48.39420497281829
 30
0.0
 10
-42.000641852562794
 20
47.569953350196315
 30
0.0
 10
-41.67829433848855
 20
46.85663958035643
 30
0.0
 10
-41.37388482054908
 20
46.251869349901376
 30
0.0
 10
-41.049969532745294
 20
45.670345090502146
 30
0.0
 10
-40.967255086352544
 20
45.444018269145054
 30
0.0
 10
-40.972238209948905
 20
45.29422778322012
 30
0.0
 10
-42.63218184769088
 20
43.735436951245966
 30
0.0
 10
-42.78198964922648
 20
43.739869083139624
 30
0.0
 10
-43.00267618324474
 20
43.83663149015507
 30
0.0
 10
-43.562714128148286
 20
44.19642181550502
 30
0.0
 10
-44.14717695091665
 20
44.538204487760176
 30
0.0
 10
-44.83884279109522
 20
44.90470526484448
 30
0.0
 10
-45.640643307515916
 20
45.28745852987252
 30
0.0
 10
-46.554985730848436
 20
45.67780343760979
 30
0.0
 10
-47.50372441926629
 20
46.03664784343152
 30
0.0
 10
-48.263887531821204
 20
45.322807166125685
 30
0.0
 10
-48.92858857084748
 20
44.51932163484143
 30
0.0
 10
-48.510880467348365
 20
43.59498709218092
 30
0.0
 10
-48.063893780332265
 20
42.70695887431228
 30
0.0
 10
-47.6315503204549
 20
41.930773804415736
 30
0.0
 10
-47.22234269148968
 20
41.26348558297787
 30
0.0
 10
-46.844535724975515
 20
40.70163677563717
 30
0.0
 10
-46.450290290138284
 20
40.165295359137545
 30
0.0
 10
-46.339861799497925
 20
39.95112006139628
 30
0.0
 10
-46.32603190371821
 20
39.801886167199534
 30
0.0
 10
-47.77751809465374
 20
38.04734076287106
 30
0.0
 10
-47.92670011035062
 20
38.0329620499013
 30
0.0
 10
-48.15777401049098
 20
38.101302099523295
 30
0.0
 10
-48.75848957380501
 20
38.388064004140226
 30
0.0
 10
-49.381180460135255
 20
38.65389900246343
 30
0.0
 10
-50.113327036069236
 20
38.9308210951564
 30
0.0
 10
-50.95677682029502
 20
39.210063984970304
 30
0.0
 10
-51.912832570010785
 20
39.48273341401841
 30
0.0
 10
-52.899065300224045
 20
39.719839736891636
 30
0.0
 10
-53.563766339250314
 20
38.91635420560735
 30
0.0
 10
-54.12252257228926
 20
38.03589526715204
 30
0.0
 10
-53.59225838482283
 20
37.17120208574334
 30
0.0
 10
-53.037496873300476
 20
36.346198522457684
 30
0.0
 10
-52.5112807860845
 20
35.63032090750933
 30
0.0
 10
-52.021666490985886
 20
35.019581768344224
 30
0.0
 10
-51.576420317449895
 20
34.509515075441854
 30
0.0
 10
-51.11806222159741
 20
34.02681492637486
 30
0.0
 10
-50.98166120997362
 20
33.828168824636926
 30
0.0
 10
-50.94923640053585
 20
33.681845029827855
 30
0.0
 10
-52.16937434035807
 20
31.759215282285925
 30
0.0
 10
-52.31557788071168
 20
31.726252485345718
 30
0.0
 10
-52.55339497353207
 20
31.76509241416735
 30
0.0
 10
-53.185314511973026
 20
31.974303491512202
 30
0.0
 10
-53.83641325461021
 20
32.15999843917778
 30
0.0
 10
-54.59749417743399
 20
32.342974620652406
 30
0.0
 10
-55.469291522515114
 20
32.51430330806818
 30
0.0
 10
-56.451983028321095
 20
32.664997098646204
 30
0.0
 10
-57.460156321027455
 20
32.77662603021877
 30
0.0
 10
-58.01891255406641
 20
31.89616709176351
 30
0.0
 10
-58.46291206153828
 20
30.952620109557287
 30
0.0
 10
-57.82845437310523
 20
30.161205017413824
 30
0.0
 10
-57.174666957511796
 20
29.41223690773741
 30
0.0
 10
-56.56287698499887
 20
28.767956565369534
 30
0.0
 10
-56.00057753368197
 20
28.223398229539704
 30
0.0
 10
-55.49491395125799
 20
27.773157707521804
 30
0.0
 10
-54.97967177537169
 20
27.35171129558932
 30
0.0
 10
-54.81944936819981
 20
27.171727157544556
 30
0.0
 10
-54.76894100371845
 20
27.030621075776896
 30
0.0
 10
-55.73848838824129
 20
24.9702280046636
 30
0.0
 10
-55.87940773608249
 20
24.919200966751706
 30
0.0
 10
-56.12021750396409
 20
24.927928245893614
 30
0.0
 10
-56.773375268920326
 20
25.056289112300018
 30
0.0
 10
-57.442613651745525
 20
25.15891548905448
 30
0.0
 10
-58.22062622065844
 20
25.24506011562424
 30
0.0
 10
-59.10702236167651
 20
25.305772644894546
 30
0.0
 10
-60.10085199149469
 20
25.33211426590497
 30
0.0
 10
-61.115066351614665
 20
25.316505351242114
 30
0.0
 10
-61.559065859086516
 20
24.372958369035924
 30
0.0
 10
-61.881306503525956
 20
23.38120364263579
 30
0.0
 10
-61.15266109087959
 20
22.67554772852915
 30
0.0
 10
-60.41015838931266
 20
22.01442674696344
 30
0.0
 10
-59.72244282483492
 20
21.45190436304961
 30
0.0
 10
-59.096326015548414
 20
20.98211484081447
 30
0.0
 10
-58.53821964100006
 20
20.598801051673913
 30
0.0
 10
-57.97421906198442
 20
20.245254838551997
 30
0.0
 10
-57.792702062337774
 20
20.086771121574678
 30
0.0
 10
-57.72490668989294
 20
19.953108080050594
 30
0.0
 10
-58.42857317768292
 20
17.787445314916546
 30
0.0
 10
-58.561985950715126
 20
17.719158762902914
 30
0.0
 10
-58.801990679765666
 20
17.697635757959606
 30
0.0
 10
-59.466085983106275
 20
17.743122085885265
 30
0.0
 10
-60.14290971703871
 20
17.761061412461178
 30
0.0
 10
-60.92558420906684
 20
17.749015931904754
 30
0.0
 10
-61.812600149370596
 20
17.698154830175095
 30
0.0
 10
-62.80189461625371
 20
17.599728858518862
 30
0.0
 10
-63.80615527746576
 20
17.45712825952906
 30
0.0
 10
-64.12839592190522
 20
16.465373533128954
 30
0.0
 10
-64.3237957758524
 20
15.441051627015865
 30
0.0
 10
-63.512453812421775
 20
14.83228350624992
 30
0.0
 10
-62.69294553603467
 20
14.269435925608736
 30
0.0
 10
-61.9401500648653
 20
13.797542814177854
 30
0.0
 10
-61.26009013371568
 20
13.40993096694171
 30
0.0
 10
-60.65834263796616
 20
13.099588998113802
 30
0.0
 10
-60.05447828186989
 20
12.819518618781654
 30
0.0
 10
-59.854529321265886
 20
12.685034705762103
 30
0.0
 10
-59.77051611438003
 20
12.560922650492856
 30
0.0
 10
-60.19720446457474
 20
10.324143986848451
 30
0.0
 10
-60.32100666367029
 20
10.239674840450744
 30
0.0
 10
-60.55642133594076
 20
10.188240982067395
 30
0.0
 10
-61.220980998020764
 20
10.150135424948704
 30
0.0
 10
-61.89471616846142
 20
10.08310478744953
 30
0.0
 10
-62.669709339318395
 20
9.97305916419092
 30
0.0
 10
-63.54335630765162
 20
9.811426541418523
 30
0.0
 10
-64.51251384688103
 20
9.589785213465477
 30
0.0
 10
-65.49098301864176
 20
9.32244182678032
 30
0.0
 10
-65.68638287258878
 20
8.29811992066724
 30
0.0
 10
-65.75186036362044
 20
7.257385003200772
 30
0.0
 10
-64.8706171968412
 20
6.755105312700469
 30
0.0
 10
-63.987027480703055
 20
6.29940757555937
 30
0.0
 10
-63.18102413712061
 20
5.925585772873982
 30
0.0
 10
-62.45774603547022
 20
5.626264471015841
 30
0.0
 10
-61.821847335994036
 20
5.393788600738304
 30
0.0
 10
-61.18764250444384
 20
5.191610932383931
 30
0.0
 10
-60.97241489743495
 20
5.083247714967255
 30
0.0
 10
-60.873508794567705
 20
4.970643967205392
 30
0.0
 10
-61.0164898769933
 20
2.698024740763106
 30
0.0
 10
-61.128729067516616
 20
2.59870512887944
 30
0.0
 10
-61.35584105299541
 20
2.5181715597278513
 30
0.0
 10
-62.01038457095511
 20
2.3970750649637314
 30
0.0
 10
-62.67040597179625
 20
2.246131576584995
 30
0.0
 10
-63.425495716219174
 20
2.039821295841056
 30
0.0
 10
-64.27199577799985
 20
1.7699661950416898
 30
0.0
 10
-65.20573219623527
 20
1.4286049269357637
 30
0.0
 10
-66.14297883519679
 20
1.0407349174664615
 30
0.0
 10
-66.20845632622844
 20
4.440892098500626e-15
 30
0.0
 10
-66.1429788351968
 20
-1.0407349174664642
 30
0.0
 10
-65.2057321962381
 20
-1.4286049269346113
 30
0.0
 10
-64.27199577800333
 20
-1.769966195040277
 30
0.0
 10
-63.42549571621917
 20
-2.0398212958415027
 30
0.0
 10
-62.67040597179643
 20
-2.2461315765854573
 30
0.0
 10
-62.010384570951786
 20
-2.397075064963994
 30
0.0
 10
-61.35584105299683
 20
-2.518171559735559
 30
0.0
 10
-61.1287290675163
 20
-2.598705128877648
 30
0.0
 10
-61.01648987699353
 20
-2.698024740763704
 30
0.0
 10
-60.8735087945674
 20
-4.970643967205956
 30
0.0
 10
-60.97241489743549
 20
-5.083247714965517
 30
0.0
 10
-61.18764250444148
 20
-5.1916109323914
 30
0.0
 10
-61.821847335997305
 20
-5.39378860073898
 30
0.0
 10
-62.45774603546999
 20
-5.626264471016277
 30
0.0
 10
-63.181024137120566
 20
-5.925585772874426
 30
0.0
 10
-63.98702748069978
 20
-6.299407575557533
 30
0.0
 10
-64.87061719683854
 20
-6.755105312698972
 30
0.0
 10
-65.75186036362045
 20
-7.257385003200775
 30
0.0
 10
-65.6863828725888
 20
-8.298119920667235
 30
0.0
 10
-65.49098301864176
 20
-9.322441826780354
 30
0.0
 10
-64.51251384688398
 20
-9.589785213464719
 30
0.0
 10
-63.543356307655245
 20
-9.811426541417587
 30
0.0
 10
-62.669709339318324
 20
-9.97305916419139
 30
0.0
 10
-61.894716168461535
 20
-10.08310478745004
 30
0.0
 10
-61.22098099801744
 20
-10.150135424948576
 30
0.0
 10
-60.55642133594119
 20
-10.188240982075246
 30
0.0
 10
-60.3210066636702
 20
-10.239674840448956
 30
0.0
 10
-60.19720446457489
 20
-10.3241439868491
 30
0.0
 10
-59.770516114379646
 20
-12.560922650493405
 30
0.0
 10
-59.85452932126664
 20
-12.685034705760474
 30
0.0
 10
-60.054478281866594
 20
-12.819518618788798
 30
0.0
 10
-60.658342637969305
 20
-13.09958899811491
 30
0.0
 10
-61.26009013371539
 20
-13.409930966942142
 30
0.0
 10
-61.94015006486519
 20
-13.797542814178318
 30
0.0
 10
-62.692945536031644
 20
-14.269435925606532
 30
0.0
 10
-63.51245381241933
 20
-14.832283506248134
 30
0.0
 10
-64.32379577585229
 20
-15.441051627015877
 30
0.0
 10
-64.12839592190525
 20
-16.46537353312892
 30
0.0
 10
-63.806155277465805
 20
-17.457128259529046
 30
0.0
 10
-62.80189461625673
 20
-17.599728858518418
 30
0.0
 10
-61.812600149374326
 20
-17.698154830174563
 30
0.0
 10
-60.92558420906673
 20
-17.749015931905152
 30
0.0
 10
-60.142909717038776
 20
-17.76106141246164
 30
0.0
 10
-59.466085983103
 20
-17.74312208588466
 30
0.0
 10
-58.801990679765126
 20
-17.697635757967394
 30
0.0
 10
-58.561985950715275
 20
-17.719158762901074
 30
0.0
 10
-58.42857317768301
 20
-17.787445314917157
 30
0.0
 10
-57.72490668989251
 20
-19.953108080051035
 30
0.0
 10
-57.79270206233873
 20
-20.0867711215731
 30
0.0
 10
-57.97421906198028
 20
-20.245254838558616
 30
0.0
 10
-58.53821964100307
 20
-20.598801051675352
 30
0.0
 10
-59.09632601554809
 20
-20.982114840814805
 30
0.0
 10
-59.72244282483478
 20
-21.45190436305
 30
0.0
 10
-60.41015838930996
 20
-22.01442674696082
 30
0.0
 10
-61.15266109087741
 20
-22.67554772852701
 30
0.0
 10
-61.88130650352599
 20
-23.381203642635764
 30
0.0
 10
-61.559065859086516
 20
-24.37295836903593
 30
0.0
 10
-61.11506635161464
 20
-25.31650535124216
 30
0.0
 10
-60.10085199149773
 20
-25.332114265904988
 30
0.0
 10
-59.10702236168025
 20
-25.305772644894564
 30
0.0
 10
-58.220626220658254
 20
-25.2450601156247
 30
0.0
 10
-57.4426136517455
 20
-25.158915489055023
 30
0.0
 10
-56.77337526891712
 20
-25.056289112299087
 30
0.0
 10
-56.12021750396256
 20
-24.92792824590135
 30
0.0
 10
-55.87940773608284
 20
-24.919200966749973
 30
0.0
 10
-55.738488388241265
 20
-24.97022800466429
 30
0.0
 10
-54.76894100371795
 20
-27.03062107577735
 30
0.0
 10
-54.819449368200935
 20
-27.171727157543184
 30
0.0
 10
-54.97967177536672
 20
-27.35171129559544
 30
0.0
 10
-55.49491395126076
 20
-27.773157707523684
 30
0.0
 10
-56.00057753368158
 20
-28.223398229540074
 30
0.0
 10
-56.56287698499865
 20
-28.767956565369982
 30
0.0
 10
-57.174666957509416
 20
-29.412236907734545
 30
0.0
 10
-57.8284543731033
 20
-30.161205017411504
 30
0.0
 10
-58.46291206153829
 20
-30.95262010955735
 30
0.0
 10
-58.01891255406646
 20
-31.896167091763523
 30
0.0
 10
-57.46015632102746
 20
-32.776626030218814
 30
0.0
 10
-56.45198302832411
 20
-32.66499709864657
 30
0.0
 10
-55.46929152251883
 20
-32.514303308068634
 30
0.0
 10
-54.597494177433745
 20
-32.34297462065281
 30
0.0
 10
-53.83641325461013
 20
-32.15999843917829
 30
0.0
 10
-53.18531451196997
 20
-31.974303491510856
 30
0.0
 10
-52.553394973529585
 20
-31.765092414174813
 30
0.0
 10
-52.31557788071226
 20
-31.726252485344023
 30
0.0
 10
-52.169374340357976
 20
-31.759215282286586
 30
0.0
 10
-50.949236400535305
 20
-33.681845029828224
 30
0.0
 10
-50.98166120997492
 20
-33.82816882463568
 30
0.0
 10
-51.11806222159172
 20
-34.02681492638028
 30
0.0
 10
-51.57642031745242
 20
-34.509515075444035
 30
0.0
 10
-52.02166649098546
 20
-35.01958176834451
 30
0.0
 10
-52.51128078608423
 20
-35.63032090750971
 30
0.0
 10
-53.03749687329847
 20
-36.346198522454515
 30
0.0
 10
-53.59225838482121
 20
-37.17120208574077
 30
0.0
 10
-54.12252257228931
 20
-38.0358952671521
 30
0.0
 10
-53.563766339250336
 20
-38.91635420560741
 30
0.0
 10
-52.89906530022409
 20
-39.719839736891686
 30
0.0
 10
-51.912832570013734
 20
-39.482733414019144
 30
0.0
 10
-50.95677682029865
 20
-39.210063984971214
 30
0.0
 10
-50.11332703606896
 20
-38.93082109515677
 30
0.0
 10
-49.38118046013511
 20
-38.653899002463916
 30
0.0
 10
-48.75848957380216
 20
-38.3880640041385
 30
0.0
 10
-48.157774010487586
 20
-38.101302099530365
 30
0.0
 10
-47.92670011035142
 20
-38.03296204989967
 30
0.0
 10
-47.777518094653566
 20
-38.047340762871684
 30
0.0
 10
-46.32603190371762
 20
-39.80188616719982
 30
0.0
 10
-46.33986179949937
 20
-39.9511200613952
 30
0.0
 10
-46.45029029013197
 20
-40.165295359142206
 30
0.0
 10
-46.844535724977746
 20
-40.70163677563965
 30
0.0
 10
-47.222342691489224
 20
-41.26348558297809
 30
0.0
 10
-47.63155032045459
 20
-41.93077380441608
 30
0.0
 10
-48.06389378033069
 20
-42.706958874308874
 30
0.0
 10
-48.510880467347086
 20
-43.594987092178165
 30
0.0
 10
-48.92858857084749
 20
-44.51932163484145
 30
0.0
 10
-48.263887531821254
 20
-45.32280716612568
 30
0.0
 10
-47.50372441926629
 20
-46.03664784343157
 30
0.0
 10
-46.554985730851264
 20
-45.6778034376109
 30
0.0
 10
-45.6406433075194
 20
-45.28745852987389
 30
0.0
 10
-44.83884279109488
 20
-44.904705264844814
 30
0.0
 10
-44.147176950916446
 20
-44.53820448776065
 30
0.0
 10
-43.56271412814567
 20
-44.19642181550295
 30
0.0
 10
-43.002676183240474
 20
-43.83663149016167
 30
0.0
 10
-42.781989649227455
 20
-43.73986908313812
 30
0.0
 10
-42.632181847690624
 20
-43.73543695124658
 30
0.0
 10
-40.97223820994828
 20
-45.29422778322034
 30
0.0
 10
-40.9672550863541
 20
-45.444018269144166
 30
0.0
 10
-41.04996953273844
 20
-45.67034509050599
 30
0.0
 10
-41.37388482055097
 20
-46.251869349904126
 30
0.0
 10
-41.67829433848806
 20
-46.85663958035661
 30
0.0
 10
-42.000641852562445
 20
-47.56995335019663
 30
0.0
 10
-42.33229437046869
 20
-48.39420497281473
 30
0.0
 10
-42.66445698590761
 20
-49.33125310978891
 30
0.0
 10
-42.96302149912137
 20
-50.3006517057957
 30
0.0
 10
-42.20285838656644
 20
-51.01449238310156
 30
0.0
 10
-41.359221426867215
 20
-51.627430512520185
 30
0.0
 10
-40.46293895611281
 20
-51.152507214394404
 30
0.0
 10
-39.6047295853818
 20
-50.650642800344066
 30
0.0
 10
-38.85722320987888
 20
-50.1704154077356
 30
0.0
 10
-38.216946088936616
 20
-49.72011588245168
 30
0.0
 10
-37.67992865758428
 20
-49.30777565317429
 30
0.0
 10
-37.169400464030055
 20
-48.88063101545881
 30
0.0
 10
-36.96258165461334
 20
-48.75697225200422
 30
0.0
 10
-36.814510625758594
 20
-48.733799172616685
 30
0.0
 10
-34.972287843979316
 20
-50.07225236963934
 30
0.0
 10
-34.94857028784506
 20
-50.2202371618481
 30
0.0
 10
-35.00226623375044
 20
-50.45514619765077
 30
0.0
 10
-35.25074303694331
 20
-51.07268231499312
 30
0.0
 10
-35.47695438636271
 20
-51.710836380753186
 30
0.0
 10
-35.70735817268809
 20
-52.458926314731876
 30
0.0
 10
-35.93308939029748
 20
-53.318245549602544
 30
0.0
 10
-36.14518953128913
 20
-54.2895357967961
 30
0.0
 10
-36.319901913489076
 20
-55.288710451196685
 30
0.0
 10
-35.47626495378987
 20
-55.9016485806153
 30
0.0
 10
-34.562458805765125
 20
-56.40401776169424
 30
0.0
 10
-33.73276746264834
 20
-55.82050539538026
 30
0.0
 10
-32.94422561896405
 20
-55.21503617662544
 30
0.0
 10
-32.26280200646308
 20
-54.64490812929294
 30
0.0
 10
-31.68401115743725
 20
-54.11791134831889
 30
0.0
 10
-31.202908203194433
 20
-53.64151641375763
 30
0.0
 10
-30.749941095578304
 20
-53.153753789768565
 30
0.0
 10
-30.56025166692995
 20
-53.00514884245277
 30
0.0
 10
-30.41625257933568
 20
-52.963600268874124
 30
0.0
 10
-28.420803607278675
 20
-54.06060762447543
 30
0.0
 10
-28.378725658632764
 20
-54.20445291439417
 30
0.0
 10
-28.402556286915864
 20
-54.44423950881521
 30
0.0
 10
-28.57167597786987
 20
-55.08804857063311
 30
0.0
 10
-28.716121670659124
 20
-55.74952240086895
 30
0.0
 10
-28.850948123888593
 20
-56.52059067384021
 30
0.0
 10
-28.967198125054146
 20
-57.401425543297094
 30
0.0
 10
-29.055890845672586
 20
-58.391640073291136
 30
0.0
 10
-29.103995778223304
 20
-59.404833204907575
 30
0.0
 10
-28.19018963019863
 20
-59.907202385986494
 30
0.0
 10
-27.220625562684063
 20
-60.29107995663935
 30
0.0
 10
-26.47061007531944
 20
-59.60818086072733
 30
0.0
 10
-25.764171534608817
 20
-58.90865544853757
 30
0.0
 10
-25.15957714254167
 20
-58.25761800636547
 30
0.0
 10
-24.65140044287432
 20
-57.66223502374988
 30
0.0
 10
-24.23379924672641
 20
-57.1292984166073
 30
0.0
 10
-23.845536786924914
 20
-56.588610114300224
 30
0.0
 10
-23.675968254649675
 20
-56.41740257191471
 30
0.0
 10
-23.538312059948126
 20
-56.35813374997018
 30
0.0
 10
-21.42110631992617
 20
-57.19639480283189
 30
0.0
 10
-21.361331573154896
 20
-57.333832064309554
 30
0.0
 10
-21.354921060571954
 20
-57.5747146395134
 30
0.0
 10
-21.44201652073355
 20
-58.23464339230908
 30
0.0
 10
-21.502418562029703
 20
-58.90900514957257
 30
0.0
 10
-21.539541388454417
 20
-59.69089155425778
 30
0.0
 10
-21.544476841213363
 20
-60.57935076622431
 30
0.0
 10
-21.508363404271986
 20
-61.57287330435532
 30
0.0
 10
-21.429102243650647
 20
-62.584106252249754
 30
0.0
 10
-20.459538176136082
 20
-62.9679838229026
 30
0.0
 10
-19.449506793665876
 20
-63.227315804522796
 30
0.0
 10
-18.790995354326714
 20
-62.455799705699505
 30
0.0
 10
-18.177801074382707
 20
-61.67325003370127
 30
0.0
 10
-17.659570717479465
 20
-60.95157044606353
 30
0.0
 10
-17.230022417294386
 20
-60.2971908071068
 30
0.0
 10
-16.882508799567503
 20
-59.71611725603845
 30
0.0
 10
-16.565074118508456
 20
-59.131030252932284
 30
0.0
 10
-16.418300679655648
 20
-58.939920160694875
 30
0.0
 10
-16.289158298269086
 20
-58.86386579511201
 30
0.0
 10
-14.08358538955973
 20
-59.43016066767761
 30
0.0
 10
-14.00705652812738
 20
-59.55902243299968
 30
0.0
 10
-13.970505972291289
 20
-59.797202126879085
 30
0.0
 10
-13.974203654225413
 20
-60.46284309999862
 30
0.0
 10
-13.949609467754792
 20
-61.13945769653353
 30
0.0
 10
-13.88844321822593
 20
-61.91983141725451
 30
0.0
 10
-13.781986287539967
 20
-62.80190343921816
 30
0.0
 10
-13.621636223512457
 20
-63.78306554155822
 30
0.0
 10
-13.416258965570405
 20
-64.77639055806112
 30
0.0
 10
-12.406227583100215
 20
-65.03572253968136
 30
0.0
 10
-11.371657683939443
 20
-65.1664191120014
 30
0.0
 10
-10.815035411399737
 20
-64.3184532800265
 30
0.0
 10
-10.304755832321566
 20
-63.465220624019715
 30
0.0
 10
-9.881062312886403
 20
-62.68428020912387
 30
0.0
 10
-9.536916645477229
 20
-61.98122387163979
 30
0.0
 10
-9.2649711035175
 20
-61.36117725366254
 30
0.0
 10
-9.023370335747492
 20
-60.740918721310294
 30
0.0
 10
-8.901706695126027
 20
-60.532919999539224
 30
0.0
 10
-8.783114779554838
 20
-60.44127951309595
 30
0.0
 10
-6.52395790447382
 20
-60.72667739693692
 30
0.0
 10
-6.431881834241308
 20
-60.84493143908597
 30
0.0
 10
-6.365767659251842
 20
-61.076652015586795
 30
0.0
 10
-6.286009248305511
 20
-61.73750765324946
 30
0.0
 10
-6.17680669908061
 20
-62.40570447267846
 30
0.0
 10
-6.01831600189219
 20
-63.17225854968676
 30
0.0
 10
-5.802145577152522
 20
-64.03403257893687
 30
0.0
 10
-5.52008770233708
 20
-64.98736073301427
 30
0.0
 10
-5.191833269118482
 20
-65.94711248923183
 30
0.0
 10
-4.157263369957723
 20
-66.07780906155186
 30
0.0
 10
-3.1144707394382425
 20
-66.0778090615519
 30
0.0
 10
-2.668515899445986
 20
-65.16676642414588
 30
0.0
 10
-2.2691984350219614
 20
-64.25630677281225
 30
0.0
 10
-1.9467236529586092
 20
-63.428421427512404
 30
0.0
 10
-1.6934080010830417
 20
-62.6877760099286
 30
0.0
 10
-1.5013192785395615
 20
-62.03853483060583
 30
0.0
 10
-1.3393626124916287
 20
-61.39288661658719
 30
0.0
 10
-1.2447274783924416
 20
-61.1712795293772
 30
0.0
 10
-1.1385562939885612
 20
-61.065498147288096
 30
0.0
 10
1.13855629398919
 20
-61.06549814728783
 30
0.0
 10
1.2447274783907203
 20
-61.17127952937763
 30
0.0
 10
1.3393626124992795
 20
-61.3928866165853
 30
0.0
 10
1.5013192785400788
 20
-62.03853483060913
 30
0.0
 10
1.6934080010835408
 20
-62.68777600992839
 30
0.0
 10
1.9467236529591048
 20
-63.42842142751239
 30
0.0
 10
2.269198435020382
 20
-64.25630677280886
 30
0.0
 10
2.6685158994447096
 20
-65.16676642414313
 30
0.0
 10
3.114470739438295
 20
-66.07780906155199
 30
0.0
 10
4.157263369957708
 20
-66.077809061552
 30
0.0
 10
5.19183326911848
 20
-65.94711248923186
 30
0.0
 10
5.520087702336099
 20
-64.98736073301716
 30
0.0
 10
5.8021455771513235
 20
-64.03403257894044
 30
0.0
 10
6.018316001892627
 20
-63.17225854968671
 30
0.0
 10
6.176806699081076
 20
-62.40570447267861
 30
0.0
 10
6.2860092483055565
 20
-61.737507653246126
 30
0.0
 10
6.3657676592596175
 20
-61.07665201558772
 30
0.0
 10
6.431881834239493
 20
-60.84493143908576
 30
0.0
 10
6.523957904474424
 20
-60.726677396937106
 30
0.0
 10
8.783114779555376
 20
-60.44127951309561
 30
0.0
 10
8.901706695124318
 20
-60.53291999953987
 30
0.0
 10
9.023370335754791
 20
-60.740918721307466
 30
0.0
 10
9.264971103518373
 20
-61.36117725366575
 30
0.0
 10
9.536916645477643
 20
-61.981223871639536
 30
0.0
 10
9.881062312886838
 20
-62.684280209123806
 30
0.0
 10
10.304755832319518
 20
-63.46522062401656
 30
0.0
 10
10.81503541139807
 20
-64.31845328002396
 30
0.0
 10
11.37165768393944
 20
-65.16641911200144
 30
0.0
 10
12.4062275831002
 20
-65.0357225396814
 30
0.0
 10
13.4162589655704
 20
-64.77639055806117
 30
0.0
 10
13.621636223511846
 20
-63.78306554156121
 30
0.0
 10
13.781986287539223
 20
-62.80190343922184
 30
0.0
 10
13.888443218226357
 20
-61.91983141725441
 30
0.0
 10
13.949609467755272
 20
-61.139457696533626
 30
0.0
 10
13.97420365422504
 20
-60.46284309999531
 30
0.0
 10
13.970505972299117
 20
-59.79720212687903
 30
0.0
 10
14.007056528125556
 20
-59.55902243299971
 30
0.0
 10
14.083585389560355
 20
-59.43016066767773
 30
0.0
 10
16.289158298269573
 20
-58.863865795111614
 30
0.0
 10
16.418300679654035
 20
-58.939920160695735
 30
0.0
 10
16.565074118515344
 20
-59.13103025292856
 30
0.0
 10
16.88250879956877
 20
-59.716117256041535
 30
0.0
 10
17.230022417294762
 20
-60.29719080710649
 30
0.0
 10
17.659570717479887
 20
-60.951570446063414
 30
0.0
 10
18.17780107438028
 20
-61.6732500336984
 30
0.0
 10
18.79099535432474
 20
-62.45579970569719
 30
0.0
 10
19.449506793665893
 20
-63.227315804522874
 30
0.0
 10
20.45953817613607
 20
-62.967983822902646
 30
0.0
 10
21.429102243650664
 20
-62.584106252249825
 30
0.0
 10
21.508363404271755
 20
-61.57287330435837
 30
0.0
 10
21.544476841213086
 20
-60.57935076622806
 30
0.0
 10
21.53954138845483
 20
-59.69089155425763
 30
0.0
 10
21.50241856203019
 20
-58.9090051495726
 30
0.0
 10
21.442016520732764
 20
-58.23464339230585
 30
0.0
 10
21.354921060579716
 20
-57.57471463951238
 30
0.0
 10
21.36133157315309
 20
-57.33383206430982
 30
0.0
 10
21.421106319926807
 20
-57.19639480283193
 30
0.0
 10
23.53831205994856
 20
-56.35813374996972
 30
0.0
 10
23.675968254648183
 20
-56.417402571915765
 30
0.0
 10
23.84553678693128
 20
-56.58861011429567
 30
0.0
 10
24.233799246728054
 20
-57.12929841661021
 30
0.0
 10
24.651400442874653
 20
-57.662235023749524
 30
0.0
 10
25.159577142542076
 20
-58.2576180063653
 30
0.0
 10
25.76417153460605
 20
-58.90865544853503
 30
0.0
 10
26.47061007531719
 20
-59.60818086072528
 30
0.0
 10
27.22062556268406
 20
-60.29107995663938
 30
0.0
 10
28.190189630198677
 20
-59.9072023859865
 30
0.0
 10
29.10399577822339
 20
-59.40483320490749
 30
0.0
 10
29.05589084567283
 20
-58.39164007329413
 30
0.0
 10
28.967198125054438
 20
-57.401425543300796
 30
0.0
 10
28.85094812388908
 20
-56.520590673839955
 30
0.0
 10
28.716121670659707
 20
-55.74952240086887
 30
0.0
 10
28.571675977868775
 20
-55.08804857062994
 30
0.0
 10
28.402556286923524
 20
-54.44423950881316
 30
0.0
 10
28.378725658631097
 20
-54.204452914394594
 30
0.0
 10
28.4208036072794
 20
-54.060607624475345
 30
0.0
 10
30.416252579336142
 20
-52.96360026887355
 30
0.0
 10
30.56025166692869
 20
-53.00514884245395
 30
0.0
 10
30.749941095584145
 20
-53.153753789763186
 30
0.0
 10
31.202908203196525
 20
-53.64151641376024
 30
0.0
 10
31.684011157437634
 20
-54.11791134831845
 30
0.0
 10
32.262802006463545
 20
-54.64490812929266
 30
0.0
 10
32.94422561896107
 20
-55.21503617662321
 30
0.0
 10
33.732767462645945
 20
-55.82050539537844
 30
0.0
 10
34.562458805765225
 20
-56.404017761694185
 30
0.0
 10
35.4762649537899
 20
-55.90164858061527
 30
0.0
 10
36.3199019134891
 20
-55.28871045119661
 30
0.0
 10
36.145189531289695
 20
-54.28953579679908
 30
0.0
 10
35.93308939029819
 20
-53.31824554960621
 30
0.0
 10
35.707358172688494
 20
-52.4589263147316
 30
0.0
 10
35.47695438636323
 20
-51.710836380753065
 30
0.0
 10
35.250743036941785
 20
-51.072682314990146
 30
0.0
 10
35.00226623375774
 20
-50.45514619764781
 30
0.0
 10
34.94857028784341
 20
-50.220237161848765
 30
0.0
 10
34.97228784397998
 20
-50.07225236963919
 30
0.0
 10
36.814510625758935
 20
-48.7337991726161
 30
0.0
 10
36.962581654612194
 20
-48.756972252005575
 30
0.0
 10
37.16940046403513
 20
-48.880631015452785
 30
0.0
 10
37.67992865758663
 20
-49.30777565317666
 30
0.0
 10
38.21694608893689
 20
-49.720115882451225
 30
0.0
 10
38.85722320987927
 20
-50.1704154077353
 30
0.0
 10
39.60472958537852
 20
-50.65064280034227
 30
0.0
 10
40.46293895611016
 20
-51.15250721439294
 30
0.0
 10
41.359221426867215
 20
-51.62743051252009
 30
0.0
 10
42.20285838656641
 20
-51.01449238310148
 30
0.0
 10
42.96302149912139
 20
-50.3006517057956
 30
0.0
 10
42.66445698590856
 20
-49.33125310979178
 30
0.0
 10
42.33229437046985
 20
-48.39420497281828
 30
0.0
 10
42.00064185256281
 20
-47.56995335019631
 30
0.0
 10
41.67829433848856
 20
-46.856639580356415
 30
0.0
 10
41.373884820549094
 20
-46.25186934990136
 30
0.0
 10
41.04996953274531
 20
-45.67034509050213
 30
0.0
 10
40.96725508635255
 20
-45.44401826914504
 30
0.0
 10
40.97223820994892
 20
-45.29422778322011
 30
0.0
 10
42.632181847690894
 20
-43.73543695124596
 30
0.0
 10
42.781989649226496
 20
-43.73986908313961
 30
0.0
 10
43.00267618324475
 20
-43.83663149015506
 30
0.0
 10
43.5627141281483
 20
-44.19642181550501
 30
0.0
 10
44.147176950916666
 20
-44.53820448776016
 30
0.0
 10
44.83884279109523
 20
-44.904705264844466
 30
0.0
 10
45.64064330751593
 20
-45.2874585298725
 30
0.0
 10
46.55498573084846
 20
-45.677803437609775
 30
0.0
 10
47.50372441926634
 20
-46.036647843431545
 30
0.0
 10
48.26388753182123
 20
-45.32280716612573
 30
0.0
 10
48.928588570847495
 20
-44.51932163484145
 30
0.0
 10
48.510880467348365
 20
-43.59498709218093
 30
0.0
 10
48.063893780332265
 20
-42.706958874312285
 30
0.0
 10
47.6315503204549
 20
-41.93077380441574
 30
0.0
 10
47.22234269148968
 20
-41.26348558297788
 30
0.0
 10
46.84453572497551
 20
-40.701636775637176
 30
0.0
 10
46.450290290138284
 20
-40.16529535913755
 30
0.0
 10
46.339861799497925
 20
-39.95112006139629
 30
0.0
 10
46.32603190371821
 20
-39.80188616719954
 30
0.0
 10
47.77751809465374
 20
-38.04734076287106
 30
0.0
 10
47.92670011035062
 20
-38.03296204990131
 30
0.0
 10
48.15777401049098
 20
-38.1013020995233
 30
0.0
 10
48.75848957380501
 20
-38.38806400414023
 30
0.0
 10
49.381180460135255
 20
-38.65389900246343
 30
0.0
 10
50.113327036069236
 20
-38.93082109515641
 30
0.0
 10
50.95677682029502
 20
-39.21006398497031
 30
0.0
 10
51.912832570010785
 20
-39.48273341401842
 30
0.0
 10
52.89906530022409
 20
-39.71983973689167
 30
0.0
 10
53.563766339250336
 20
-38.916354205607426
 30
0.0
 10
54.122522572289355
 20
-38.03589526715213
 30
0.0
 10
53.592258384822806
 20
-37.171202085743374
 30
0.0
 10
53.037496873300455
 20
-36.34619852245771
 30
0.0
 10
52.511280786084484
 20
-35.63032090750936
 30
0.0
 10
52.021666490985865
 20
-35.01958176834426
 30
0.0
 10
51.57642031744988
 20
-34.50951507544188
 30
0.0
 10
51.11806222159739
 20
-34.02681492637489
 30
0.0
 10
50.98166120997361
 20
-33.82816882463696
 30
0.0
 10
50.94923640053584
 20
-33.68184502982788
 30
0.0
 10
52.169374340358054
 20
-31.759215282285957
 30
0.0
 10
52.315577880711665
 20
-31.72625248534575
 30
0.0
 10
52.55339497353206
 20
-31.76509241416738
 30
0.0
 10
53.18531451197301
 20
-31.974303491512234
 30
0.0
 10
53.83641325461019
 20
-32.159998439177805
 30
0.0
 10
54.59749417743397
 20
-32.342974620652434
 30
0.0
 10
55.46929152251509
 20
-32.514303308068214
 30
0.0
 10
56.45198302832108
 20
-32.66499709864624
 30
0.0
 10
57.46015632102744
 20
-32.77662603021881
 30
0.0
 10
58.018912554066425
 20
-31.89616709176346
 30
0.0
 10
58.46291206153832
 20
-30.952620109557245
 30
0.0
 10
57.82845437310526
 20
-30.161205017413778
 30
0.0
 10
57.174666957511825
 20
-29.412236907737363
 30
0.0
 10
56.5628769849989
 20
-28.76795656536949
 30
0.0
 10
56.000577533682
 20
-28.223398229539658
 30
0.0
 10
55.49491395125801
 20
-27.773157707521758
 30
0.0
 10
54.97967177537171
 20
-27.351711295589276
 30
0.0
 10
54.819449368199834
 20
-27.171727157544513
 30
0.0
 10
54.76894100371848
 20
-27.03062107577685
 30
0.0
 10
55.73848838824131
 20
-24.970228004663557
 30
0.0
 10
55.87940773608251
 20
-24.919200966751664
 30
0.0
 10
56.12021750396411
 20
-24.927928245893572
 30
0.0
 10
56.77337526892035
 20
-25.05628911229997
 30
0.0
 10
57.442613651745546
 20
-25.158915489054433
 30
0.0
 10
58.22062622065847
 20
-25.245060115624195
 30
0.0
 10
59.107022361676535
 20
-25.3057726448945
 30
0.0
 10
60.100851991494714
 20
-25.332114265904924
 30
0.0
 10
61.1150663516147
 20
-25.31650535124208
 30
0.0
 10
61.559065859086544
 20
-24.37295836903591
 30
0.0
 10
61.881306503525735
 20
-23.381203642635697
 30
0.0
 10
61.152661090879604
 20
-22.67554772852913
 30
0.0
 10
60.41015838931267
 20
-22.01442674696342
 30
0.0
 10
59.722442824834935
 20
-21.45190436304959
 30
0.0
 10
59.09632601554842
 20
-20.98211484081445
 30
0.0
 10
58.53821964100007
 20
-20.59880105167389
 30
0.0
 10
57.97421906198443
 20
-20.245254838551975
 30
0.0
 10
57.79270206233778
 20
-20.08677112157466
 30
0.0
 10
57.72490668989295
 20
-19.953108080050573
 30
0.0
 10
58.42857317768293
 20
-17.78744531491653
 30
0.0
 10
58.56198595071513
 20
-17.719158762902897
 30
0.0
 10
58.80199067976567
 20
-17.697635757959585
 30
0.0
 10
59.46608598310628
 20
-17.743122085885243
 30
0.0
 10
60.14290971703872
 20
-17.761061412461157
 30
0.0
 10
60.92558420906685
 20
-17.749015931904733
 30
0.0
 10
61.8126001493706
 20
-17.698154830175074
 30
0.0
 10
62.80189461625372
 20
-17.59972885851884
 30
0.0
 10
63.806155277465805
 20
-17.45712825952905
 30
0.0
 10
64.12839592190532
 20
-16.465373533128965
 30
0.0
 10
64.32379577585237
 20
-15.441051627015838
 30
0.0
 10
63.512453812421775
 20
-14.832283506249901
 30
0.0
 10
62.69294553603467
 20
-14.269435925608718
 30
0.0
 10
61.94015006486531
 20
-13.797542814177834
 30
0.0
 10
61.26009013371568
 20
-13.40993096694169
 30
0.0
 10
60.65834263796616
 20
-13.099588998113783
 30
0.0
 10
60.05447828186989
 20
-12.819518618781636
 30
0.0
 10
59.85452932126589
 20
-12.685034705762083
 30
0.0
 10
59.77051611438003
 20
-12.560922650492836
 30
0.0
 10
60.19720446457474
 20
-10.324143986848432
 30
0.0
 10
60.32100666367029
 20
-10.239674840450725
 30
0.0
 10
60.55642133594076
 20
-10.188240982067375
 30
0.0
 10
61.220980998020764
 20
-10.150135424948685
 30
0.0
 10
61.89471616846142
 20
-10.08310478744951
 30
0.0
 10
62.669709339318395
 20
-9.9730591641909
 30
0.0
 10
63.54335630765162
 20
-9.811426541418504
 30
0.0
 10
64.51251384688103
 20
-9.589785213465458
 30
0.0
 10
65.49098301864181
 20
-9.322441826780313
 30
0.0
  0
LWPOLYLINE
  8
OpenJsCad
  90
31
  70
1
 10
0.41582338163551874
 20
-1.9562952014676114
 30
0.0
 10
1.2246467991473532e-16
 20
-2
 30
0.0
 10
-0.41582338163551785
 20
-1.9562952014676114
 30
0.0
 10
-0.8134732861516002
 20
-1.827090915285202
 30
0.0
 10
-1.1755705045849467
 20
-1.6180339887498947
 30
0.0
 10
-1.486289650954788
 20
-1.338261212717717
 30
0.0
 10
-1.7320508075688772
 20
-1.0000000000000002
 30
0.0
 10
-1.9021130325903073
 20
-0.6180339887498946
 30
0.0
 10
-1.9890437907365468
 20
-0.20905692653530608
 30
0.0
 10
-1.9890437907365466
 20
0.20905692653530836
 30
0.0
 10
-1.902113032590307
 20
0.618033988749895
 30
0.0
 10
-1.732050807568877
 20
1.0000000000000009
 30
0.0
 10
-1.486289650954788
 20
1.338261212717717
 30
0.0
 10
-1.175570504584946
 20
1.618033988749895
 30
0.0
 10
-0.8134732861516005
 20
1.8270909152852017
 30
0.0
 10
-0.41582338163551824
 20
1.9562952014676114
 30
0.0
 10
1.0106430996148606e-15
 20
2
 30
0.0
 10
0.4158233816355185
 20
1.9562952014676114
 30
0.0
 10
0.8134732861516
 20
1.827090915285202
 30
0.0
 10
1.1755705045849465
 20
1.6180339887498947
 30
0.0
 10
1.486289650954789
 20
1.3382612127177158
 30
0.0
 10
1.7320508075688774
 20
0.9999999999999997
 30
0.0
 10
1.9021130325903073
 20
0.6180339887498948
 30
0.0
 10
1.9890437907365468
 20
0.20905692653530678
 30
0.0
 10
1.9890437907365466
 20
-0.2090569265353068
 30
0.0
 10
1.902113032590307
 20
-0.6180339887498948
 30
0.0
 10
1.7320508075688772
 20
-1.0000000000000002
 30
0.0
 10
1.4862896509547885
 20
-1.3382612127177165
 30
0.0
 10
1.1755705045849463
 20
-1.618033988749895
 30
0.0
 10
0.8134732861516004
 20
-1.8270909152852017
 30
0.0
 10
0.41582338163551874
 20
-1.9562952014676114
 30
0.0
  0
LWPOLYLINE
  8
OpenJsCad
  90
476
  70
1
 10
61.567491750702125
 20
5.257039329553693
 30
0.0
 10
61.3865747482161
 20
4.308639189577232
 30
0.0
 10
61.325950386588055
 20
3.3450425550495186
 30
0.0
 10
62.08994377958945
 20
2.8435415244863806
 30
0.0
 10
63.07944364123774
 20
2.3066956001818766
 30
0.0
 10
63.916701619431244
 20
1.93948357444153
 30
0.0
 10
64.58162776914875
 20
1.7120654374141706
 30
0.0
 10
65.0581032700578
 20
1.5925446490014643
 30
0.0
 10
65.58854639189964
 20
1.505855009901059
 30
0.0
 10
66.04257301517171
 20
1.34559679988859
 30
0.0
 10
66.25845632622844
 20
1.1385562939892222
 30
0.0
 10
66.25845632622841
 20
-1.138556293989136
 30
0.0
 10
66.04257301517171
 20
-1.3455967998886673
 30
0.0
 10
65.58854639189975
 20
-1.5058550099016115
 30
0.0
 10
65.05810327005783
 20
-1.5925446490014488
 30
0.0
 10
64.5816277691487
 20
-1.7120654374141475
 30
0.0
 10
63.916701619431244
 20
-1.939483574441506
 30
0.0
 10
63.07944364123733
 20
-2.3066956001819667
 30
0.0
 10
62.089943779590186
 20
-2.8435415244858717
 30
0.0
 10
61.32595038658805
 20
-3.345042555049499
 30
0.0
 10
61.38657474821609
 20
-4.308639189577199
 30
0.0
 10
61.567491750702125
 20
-5.25703932955368
 30
0.0
 10
62.43220112108062
 20
-5.552787352345578
 30
0.0
 10
63.52412217735245
 20
-5.826688665804506
 30
0.0
 10
64.42639807379823
 20
-5.974146458375721
 30
0.0
 10
65.12699093664529
 20
-6.0290594272894555
 30
0.0
 10
65.61822069490033
 20
-6.0263306117929325
 30
0.0
 10
66.15355780721909
 20
-5.978380896351682
 30
0.0
 10
66.63317494538975
 20
-6.020692470291003
 30
0.0
 10
66.89376476529864
 20
-6.167540421709213
 30
0.0
 10
67.46005963786465
 20
-8.373113330419093
 30
0.0
 10
67.30244757805713
 20
-8.6273372743724
 30
0.0
 10
66.90253963221717
 20
-8.895472507734898
 30
0.0
 10
66.41032019303069
 20
-9.11135447252956
 30
0.0
 10
65.97853765754397
 20
-9.345614934148829
 30
0.0
 10
65.39105797637013
 20
-9.731248721354966
 30
0.0
 10
64.67142591441788
 20
-10.295141698176026
 30
0.0
 10
63.8465211628274
 20
-11.061200229519992
 30
0.0
 10
63.23124826185592
 20
-11.736943113712975
 30
0.0
 10
63.529604735996145
 20
-12.655189922384004
 30
0.0
 10
63.940695421963866
 20
-13.528802099042803
 30
0.0
 10
64.85178789979994
 20
-13.600214178106308
 30
0.0
 10
65.97752073492506
 20
-13.593960653856463
 30
0.0
 10
66.88812123671079
 20
-13.512398897839475
 30
0.0
 10
67.5803599865144
 20
-13.391356314846963
 30
0.0
 10
68.05547822978758
 20
-13.266549356954737
 30
0.0
 10
68.56207213298408
 20
-13.086973143939723
 30
0.0
 10
69.03714367735364
 20
-13.008679490004205
 30
0.0
 10
69.32606618934753
 20
-13.086107890084662
 30
0.0
 10
70.42307354494935
 20
-15.081556862142076
 30
0.0
 10
70.33363608176535
 20
-15.366990418780308
 30
0.0
 10
70.01297450035307
 20
-15.726154752647787
 30
0.0
 10
69.58990670144257
 20
-16.0576643853309
 30
0.0
 10
69.229947616068
 20
-16.391945073803484
 30
0.0
 10
68.75682791240504
 20
-16.91156372207638
 30
0.0
 10
68.2000388957685
 20
-17.636706180391073
 30
0.0
 10
67.59156105356456
 20
-18.58384304388456
 30
0.0
 10
67.16366850380724
 20
-19.391368371084564
 30
0.0
 10
67.68101025591106
 20
-20.20656852983459
 30
0.0
 10
68.29644428567534
 20
-20.9505004771954
 30
0.0
 10
69.19667257982285
 20
-20.793089528967688
 30
0.0
 10
70.28548325961454
 20
-20.50707409893655
 30
0.0
 10
71.14719198825864
 20
-20.201617619425058
 30
0.0
 10
71.78758071849259
 20
-19.912225035179205
 30
0.0
 10
72.21673402019643
 20
-19.673182015063517
 30
0.0
 10
72.66275355621079
 20
-19.373262738373587
 30
0.0
 10
73.10342901445556
 20
-19.179283334783918
 30
0.0
 10
73.40253015452318
 20
-19.18242707238783
 30
0.0
 10
74.96132098649755
 20
-20.842370710130446
 30
0.0
 10
74.94567780467689
 20
-21.14107903933883
 30
0.0
 10
74.72441093416322
 20
-21.568704857700382
 30
0.0
 10
74.39707768126877
 20
-21.99501218884331
 30
0.0
 10
74.13155959917734
 20
-22.408309019114114
 30
0.0
 10
73.80252772401899
 20
-23.029262977759068
 30
0.0
 10
73.44356685434019
 20
-23.870091550024068
 30
0.0
 10
73.08974882217343
 20
-24.938794653208067
 30
0.0
 10
72.87612268621022
 20
-25.827362637236707
 30
0.0
 10
73.57994323134308
 20
-26.488294121995004
 30
0.0
 10
74.36105062140578
 20
-27.05580185981482
 30
0.0
 10
75.19385007733536
 20
-26.679458593090022
 30
0.0
 10
76.17732462241676
 20
-26.13165265863761
 30
0.0
 10
76.93599724935551
 20
-25.621494409629673
 30
0.0
 10
77.4842979809142
 20
-25.181935424510108
 30
0.0
 10
77.84052106078718
 20
-24.84367629426358
 30
0.0
 10
78.19794118182652
 20
-24.442258985079096
 30
0.0
 10
78.57653129421402
 20
-24.144782271169156
 30
0.0
 10
78.8670174377079
 20
-24.073443813701015
 30
0.0
 10
80.78964718525019
 20
-25.293581753523803
 30
0.0
 10
80.84878120343825
 20
-25.58679591240579
 30
0.0
 10
80.74081205506019
 20
-26.056013912396
 30
0.0
 10
80.52978090030867
 20
-26.55033248453436
 30
0.0
 10
80.37538729910537
 20
-27.01667649675804
 30
0.0
 10
80.21111753526239
 20
-27.699948944844483
 30
0.0
 10
80.07253964414899
 20
-28.603631279513213
 30
0.0
 10
79.99561311023217
 20
-29.72675007599958
 30
0.0
 10
80.00967630384761
 20
-30.640528722495894
 30
0.0
 10
80.85575200868792
 20
-31.105662777339123
 30
0.0
 10
81.75345290901937
 20
-31.461087707303275
 30
0.0
 10
82.46649567409278
 20
-30.889459153623413
 30
0.0
 10
83.28283876183006
 20
-30.114283376300676
 30
0.0
 10
83.89080509571016
 20
-29.431478476812256
 30
0.0
 10
84.31256607712075
 20
-28.869372198438917
 30
0.0
 10
84.5734761289576
 20
-28.453151023244985
 30
0.0
 10
84.81983881431775
 20
-27.975458207411613
 30
0.0
 10
85.11255537172964
 20
-27.593175739159186
 30
0.0
 10
85.37617420592075
 20
-27.45183754426621
 30
0.0
 10
87.54183697105528
 20
-28.155504032056655
 30
0.0
 10
87.67203258140961
 20
-28.424800296643443
 30
0.0
 10
87.68414525384252
 20
-28.906127785659844
 30
0.0
 10
87.60267606080524
 20
-29.43739774492963
 30
0.0
 10
87.56910805827363
 20
-29.92748682972488
 30
0.0
 10
87.57992207915021
 20
-30.63014524643925
 30
0.0
 10
87.67043452515469
 20
-31.539899658913324
 30
0.0
 10
87.87523306652979
 20
-32.646864464176836
 30
0.0
 10
88.11610194754822
 20
-33.528437700138674
 30
0.0
 10
89.05127076391207
 20
-33.76854824175765
 30
0.0
 10
90.0091593254315
 20
-33.88955770835503
 30
0.0
 10
90.55764230033135
 20
-33.15856139205058
 30
0.0
 10
91.1555600922221
 20
-32.204722916843785
 30
0.0
 10
91.5746193723421
 20
-31.392174509890506
 30
0.0
 10
91.84333981001416
 20
-30.742840143015865
 30
0.0
 10
91.99254289569792
 20
-30.27480963006637
 30
0.0
 10
92.11236827179913
 20
-29.7508565040342
 30
0.0
 10
92.30081881639704
 20
-29.307788494856158
 30
0.0
 10
92.52100620041088
 20
-29.105331361128993
 30
0.0
 10
94.79362542685375
 20
-29.24831244355491
 30
0.0
 10
94.98670196034983
 20
-29.476769939140134
 30
0.0
 10
95.11813536983743
 20
-29.93996334084914
 30
0.0
 10
95.17134714753567
 20
-30.4748030418352
 30
0.0
 10
95.26071394472929
 20
-30.95784309958276
 30
0.0
 10
95.44593226562257
 20
-31.635736872406003
 30
0.0
 10
95.75984781888098
 20
-32.494400147106994
 30
0.0
 10
96.23350318999705
 20
-33.51565629130116
 30
0.0
 10
96.68604308077032
 20
-34.309631628113486
 30
0.0
 10
97.65154491261524
 20
-34.30963162811348
 30
0.0
 10
98.60943347413466
 20
-34.188622161516086
 30
0.0
 10
98.95889345636871
 20
-33.34418926955685
 30
0.0
 10
99.30081657856064
 20
-32.27162127583577
 30
0.0
 10
99.50463776915835
 20
-31.3803847661705
 30
0.0
 10
99.60343296970831
 20
-30.684622377150053
 30
0.0
 10
99.63155411063492
 20
-30.194190604869434
 30
0.0
 10
99.61731310840985
 20
-29.656899070511866
 30
0.0
 10
99.68965659940406
 20
-29.180885112915025
 30
0.0
 10
99.8525773501105
 20
-28.930030166650997
 30
0.0
 10
102.08935601375545
 20
-28.503341816455922
 30
0.0
 10
102.33318176170789
 20
-28.676605718384067
 30
0.0
 10
102.57567746375383
 20
-29.09256088785014
 30
0.0
 10
102.76022672049557
 20
-29.597364385136693
 30
0.0
 10
102.96691307287865
 20
-30.043004232511215
 30
0.0
 10
103.31489774550157
 20
-30.653538802577955
 30
0.0
 10
103.83249193730204
 20
-31.407157968013777
 30
0.0
 10
104.54524262920927
 20
-32.278536171681516
 30
0.0
 10
105.18101878407477
 20
-32.93502521889536
 30
0.0
 10
106.11618760043862
 20
-32.69491467727639
 30
0.0
 10
107.01388850077008
 20
-32.33948974731222
 30
0.0
 10
107.14236763443066
 20
-31.43467910390693
 30
0.0
 10
107.20681179965115
 20
-30.310774983346203
 30
0.0
 10
107.18258806571944
 20
-29.39685003860982
 30
0.0
 10
107.1052503633534
 20
-28.69837693718079
 30
0.0
 10
107.01052260481612
 20
-28.21635953750332
 30
0.0
 10
106.8631100388093
 20
-27.699489597944087
 30
0.0
 10
106.81480086859989
 20
-27.220439399541128
 30
0.0
 10
106.91021807605144
 20
-26.936948779593965
 30
0.0
 10
108.97061114716517
 20
-25.967401395070638
 30
0.0
 10
109.24986564110176
 20
-26.074584895163508
 30
0.0
 10
109.58818673890968
 20
-26.417165839312986
 30
0.0
 10
109.89247756616915
 20
-26.860214472628126
 30
0.0
 10
110.20349661008223
 20
-27.24045291907035
 30
0.0
 10
110.6923824776558
 20
-27.745266153954212
 30
0.0
 10
111.38113296134921
 20
-28.34648854634311
 30
0.0
 10
112.28819422676138
 20
-29.01323691224313
 30
0.0
 10
113.06725849168778
 20
-29.490990048624234
 30
0.0
 10
113.91333419652807
 20
-29.025855993780997
 30
0.0
 10
114.69444158659078
 20
-28.458348255961173
 30
0.0
 10
114.5938670551968
 20
-27.550012441495753
 30
0.0
 10
114.37678299953599
 20
-26.445391223420437
 30
0.0
 10
114.12603640736643
 20
-25.566203109071548
 30
0.0
 10
113.87742521435224
 20
-24.9089069290011
 30
0.0
 10
113.66580064980428
 20
-24.46559082788451
 30
0.0
 10
113.39447899368342
 20
-24.001619322340783
 30
0.0
 10
113.22855260510336
 20
-23.549633368920745
 30
0.0
 10
113.25047085523589
 20
-23.251319833547296
 30
0.0
 10
115.00501625956468
 20
-21.79983364261118
 30
0.0
 10
115.30215291260518
 20
-21.83420200736459
 30
0.0
 10
115.71504144734185
 20
-22.081883105551977
 30
0.0
 10
116.11995413333895
 20
-22.43533849984562
 30
0.0
 10
116.51576339840494
 20
-22.726283765346405
 30
0.0
 10
117.11483196387306
 20
-23.093656392926423
 30
0.0
 10
117.9314620135219
 20
-23.504704998213327
 30
0.0
 10
118.97583985719515
 20
-23.924929274387154
 30
0.0
 10
119.8492407592192
 20
-24.19392751332356
 30
0.0
 10
120.55306130435206
 20
-23.53299602856527
 30
0.0
 10
121.16849533411633
 20
-22.78906408120445
 30
0.0
 10
120.8451866053625
 20
-21.93427717552722
 30
0.0
 10
120.36021451841688
 20
-20.918346273581637
 30
0.0
 10
119.89870039857695
 20
-20.129137612272494
 30
0.0
 10
119.4944368704997
 20
-19.554318689920702
 30
0.0
 10
119.17921264963232
 20
-19.177559068400726
 30
0.0
 10
118.80103004090275
 20
-18.795639032933646
 30
0.0
 10
118.52791219918109
 20
-18.399117264237976
 30
0.0
 10
118.47495428772908
 20
-18.104724949986192
 30
0.0
 10
119.81340748475233
 20
-16.26250216820659
 30
0.0
 10
120.10975610819405
 20
-16.221895906865083
 30
0.0
 10
120.57126877472413
 20
-16.359114444783916
 30
0.0
 10
121.051361166233
 20
-16.60076769771458
 30
0.0
 10
121.50709050064316
 20
-16.784138621220674
 30
0.0
 10
122.17870008281739
 20
-16.990987268203984
 30
0.0
 10
123.07189782904695
 20
-17.18603439078769
 30
0.0
 10
124.18797015011032
 20
-17.333330340486544
 30
0.0
 10
125.100828698414
 20
-17.376671533319566
 30
0.0
 10
125.61817045051782
 20
-16.561471374569525
 30
0.0
 10
126.02926113648553
 20
-15.687859197910718
 30
0.0
 10
125.50353288684582
 20
-14.940330605991702
 30
0.0
 10
124.78114534844075
 20
-14.076924695077603
 30
0.0
 10
124.1378623304102
 20
-13.427284369504676
 30
0.0
 10
123.60334783151622
 20
-12.971060691799025
 30
0.0
 10
123.2043306514401
 20
-12.68453074252071
 30
0.0
 10
122.74304969426663
 20
-12.408659617562321
 30
0.0
 10
122.3799013978559
 20
-12.09251695462322
 30
0.0
 10
122.25539486516149
 20
-11.820543613296739
 30
0.0
 10
123.09365591802369
 20
-9.703337873274323
 30
0.0
 10
123.37059583796177
 20
-9.590308426577367
 30
0.0
 10
123.85173409812236
 20
-9.608442458835718
 30
0.0
 10
124.37684022452817
 20
-9.723109607783273
 30
0.0
 10
124.86385447814624
 20
-9.787384319779706
 30
0.0
 10
125.56580537697133
 20
-9.820711924940237
 30
0.0
 10
126.4794479204345
 20
-9.787502036775674
 30
0.0
 10
127.59708779032866
 20
-9.652614513763368
 30
0.0
 10
128.49204572506318
 20
-9.467575373949543
 30
0.0
 10
128.79040219920338
 20
-8.549328565278515
 30
0.0
 10
128.97131920168943
 20
-7.600928425302032
 30
0.0
 10
128.27620487058192
 20
-7.007628117789354
 30
0.0
 10
127.36179214651091
 20
-6.350998166674281
 30
0.0
 10
126.57716006814204
 20
-5.88174546770331
 30
0.0
 10
125.94598011020368
 20
-5.57278324618736
 30
0.0
 10
125.48824168782554
 20
-5.394486699647313
 30
0.0
 10
124.97284636122008
 20
-5.241998482561774
 30
0.0
 10
124.54248555314977
 20
-5.026099331583089
 30
0.0
 10
124.35425360256511
 20
-4.793634048465432
 30
0.0
 10
124.63965148640644
 20
-2.5344771733838463
 30
0.0
 10
124.87978154915741
 20
-2.35612659716064
 30
0.0
 10
125.35031371655985
 20
-2.254036695819413
 30
0.0
 10
125.88743922873527
 20
-2.234512782099211
 30
0.0
 10
126.37513750489333
 20
-2.1756526660453885
 30
0.0
 10
127.06332356380125
 20
-2.0333651333805456
 30
0.0
 10
127.94000338335002
 20
-1.773984933878518
 30
0.0
 10
128.98898537865762
 20
-1.365389417307524
 30
0.0
 10
129.80980920135855
 20
-0.9635966345277112
 30
0.0
 10
129.8704335629866
 20
-1.5987211554602254e-14
 30
0.0
 10
129.80980920135855
 20
0.9635966345276978
 30
0.0
 10
128.9889853786584
 20
1.3653894173071177
 30
0.0
 10
127.9400033833496
 20
1.7739849338785634
 30
0.0
 10
127.06332356380126
 20
2.0333651333805287
 30
0.0
 10
126.37513750489327
 20
2.175652666045365
 30
0.0
 10
125.8874392287353
 20
2.234512782099204
 30
0.0
 10
125.3503137165599
 20
2.2540366958199805
 30
0.0
 10
124.87978154915741
 20
2.3561265971607233
 30
0.0
 10
124.63965148640644
 20
2.534477173383765
 30
0.0
 10
124.35425360256514
 20
4.7936340484653535
 30
0.0
 10
124.54248555314976
 20
5.02609933158317
 30
0.0
 10
124.97284636121991
 20
5.241998482562313
 30
0.0
 10
125.48824168782551
 20
5.394486699647301
 30
0.0
 10
125.94598011020373
 20
5.572783246187351
 30
0.0
 10
126.57716006814204
 20
5.881745467703293
 30
0.0
 10
127.3617921465113
 20
6.35099816667443
 30
0.0
 10
128.27620487058124
 20
7.007628117788762
 30
0.0
 10
128.97131920168943
 20
7.600928425302021
 30
0.0
 10
128.7904021992034
 20
8.54932856527847
 30
0.0
 10
128.49204572506318
 20
9.467575373949511
 30
0.0
 10
127.59708779032954
 20
9.652614513763154
 30
0.0
 10
126.4794479204341
 20
9.7875020367756
 30
0.0
 10
125.56580537697133
 20
9.820711924940204
 30
0.0
 10
124.86385447814621
 20
9.787384319779653
 30
0.0
 10
124.3768402245282
 20
9.72310960778326
 30
0.0
 10
123.85173409812225
 20
9.608442458836263
 30
0.0
 10
123.37059583796176
 20
9.590308426577433
 30
0.0
 10
123.0936559180237
 20
9.70333787327423
 30
0.0
 10
122.25539486516153
 20
11.820543613296657
 30
0.0
 10
122.37990139785589
 20
12.092516954623282
 30
0.0
 10
122.74304969426635
 20
12.408659617562789
 30
0.0
 10
123.20433065144009
 20
12.684530742520678
 30
0.0
 10
123.60334783151629
 20
12.971060691799012
 30
0.0
 10
124.1378623304102
 20
13.427284369504644
 30
0.0
 10
124.7811453484411
 20
14.076924695077825
 30
0.0
 10
125.50353288684533
 20
14.940330605990948
 30
0.0
 10
126.02926113648556
 20
15.687859197910695
 30
0.0
 10
125.61817045051784
 20
16.5614713745695
 30
0.0
 10
125.100828698414
 20
17.376671533319534
 30
0.0
 10
124.18797015011121
 20
17.333330340486555
 30
0.0
 10
123.07189782904658
 20
17.186034390787515
 30
0.0
 10
122.1787000828174
 20
16.990987268203956
 30
0.0
 10
121.50709050064313
 20
16.78413862122061
 30
0.0
 10
121.05136116623304
 20
16.600767697714574
 30
0.0
 10
120.5712687747239
 20
16.359114444784417
 30
0.0
 10
120.109756108194
 20
16.22189590686514
 30
0.0
 10
119.81340748475236
 20
16.262502168206506
 30
0.0
 10
118.47495428772916
 20
18.10472494998612
 30
0.0
 10
118.52791219918105
 20
18.39911726423803
 30
0.0
 10
118.80103004090233
 20
18.795639032934023
 30
0.0
 10
119.17921264963232
 20
19.177559068400683
 30
0.0
 10
119.49443687049977
 20
19.554318689920706
 30
0.0
 10
119.89870039857698
 20
20.129137612272466
 30
0.0
 10
120.36021451841717
 20
20.91834627358194
 30
0.0
 10
120.84518660536222
 20
21.934277175526365
 30
0.0
 10
121.16849533411634
 20
22.789064081204433
 30
0.0
 10
120.55306130435207
 20
23.532996028565243
 30
0.0
 10
119.84924075921921
 20
24.193927513323544
 30
0.0
 10
118.97583985719601
 20
23.924929274387395
 30
0.0
 10
117.93146201352155
 20
23.504704998213075
 30
0.0
 10
117.11483196387306
 20
23.093656392926412
 30
0.0
 10
116.51576339840491
 20
22.726283765346345
 30
0.0
 10
116.11995413333898
 20
22.43533849984563
 30
0.0
 10
115.71504144734148
 20
22.081883105552414
 30
0.0
 10
115.30215291260512
 20
21.834202007364638
 30
0.0
 10
115.00501625956473
 20
21.799833642611112
 30
0.0
 10
113.25047085523596
 20
23.251319833547257
 30
0.0
 10
113.22855260510329
 20
23.549633368920794
 30
0.0
 10
113.39447899368292
 20
24.00161932234105
 30
0.0
 10
113.66580064980427
 20
24.46559082788448
 30
0.0
 10
113.87742521435229
 20
24.908906929001127
 30
0.0
 10
114.12603640736644
 20
25.56620310907153
 30
0.0
 10
114.37678299953618
 20
26.445391223420806
 30
0.0
 10
114.59386705519671
 20
27.550012441494864
 30
0.0
 10
114.6944415865908
 20
28.458348255961166
 30
0.0
 10
113.9133341965281
 20
29.025855993780993
 30
0.0
 10
113.06725849168778
 20
29.490990048624223
 30
0.0
 10
112.28819422676213
 20
29.013236912243585
 30
0.0
 10
111.38113296134894
 20
28.346488546342798
 30
0.0
 10
110.6923824776558
 20
27.745266153954212
 30
0.0
 10
110.20349661008221
 20
27.240452919070297
 30
0.0
 10
109.89247756616916
 20
26.860214472628147
 30
0.0
 10
109.5881867389092
 20
26.41716583931332
 30
0.0
 10
109.24986564110168
 20
26.07458489516355
 30
0.0
 10
108.97061114716523
 20
25.9674013950706
 30
0.0
 10
106.9102180760515
 20
26.936948779593944
 30
0.0
 10
106.8148008685998
 20
27.220439399541164
 30
0.0
 10
106.86311003880873
 20
27.699489597944236
 30
0.0
 10
107.0105226048161
 20
28.2163595375033
 30
0.0
 10
107.10525036335343
 20
28.698376937180843
 30
0.0
 10
107.18258806571944
 20
29.396850038609816
 30
0.0
 10
107.20681179965123
 20
30.31077498334662
 30
0.0
 10
107.1423676344308
 20
31.434679103906056
 30
0.0
 10
107.01388850077008
 20
32.339489747312236
 30
0.0
 10
106.11618760043865
 20
32.69491467727638
 30
0.0
 10
105.18101878407478
 20
32.93502521889535
 30
0.0
 10
104.54524262920991
 20
32.27853617168214
 30
0.0
 10
103.83249193730188
 20
31.407157968013394
 30
0.0
 10
103.31489774550161
 20
30.653538802577952
 30
0.0
 10
102.96691307287867
 20
30.04300423251115
 30
0.0
 10
102.7602267204956
 20
29.597364385136718
 30
0.0
 10
102.57567746375332
 20
29.092560887850343
 30
0.0
 10
102.33318176170783
 20
28.67660571838409
 30
0.0
 10
102.08935601375553
 20
28.503341816455887
 30
0.0
 10
99.8525773501106
 20
28.930030166650994
 30
0.0
 10
99.68965659940399
 20
29.180885112915032
 30
0.0
 10
99.61731310840929
 20
29.656899070511866
 30
0.0
 10
99.63155411063494
 20
30.194190604869398
 30
0.0
 10
99.60343296970835
 20
30.684622377150106
 30
0.0
 10
99.50463776915839
 20
31.380384766170494
 30
0.0
 10
99.30081657856064
 20
32.27162127583618
 30
0.0
 10
98.95889345636908
 20
33.34418926955604
 30
0.0
 10
98.60943347413469
 20
34.1886221615161
 30
0.0
 10
97.65154491261526
 20
34.30963162811348
 30
0.0
 10
96.68604308077032
 20
34.30963162811348
 30
0.0
 10
96.2335031899975
 20
33.51565629130193
 30
0.0
 10
95.75984781888091
 20
32.49440014710659
 30
0.0
 10
95.44593226562259
 20
31.63573687240601
 30
0.0
 10
95.2607139447293
 20
30.9578430995827
 30
0.0
 10
95.17134714753567
 20
30.47480304183523
 30
0.0
 10
95.11813536983686
 20
29.939963340849214
 30
0.0
 10
94.98670196034975
 20
29.47676993914013
 30
0.0
 10
94.79362542685382
 20
29.248312443554898
 30
0.0
 10
92.52100620041095
 20
29.105331361129014
 30
0.0
 10
92.30081881639695
 20
29.30778849485615
 30
0.0
 10
92.11236827179857
 20
29.750856504034058
 30
0.0
 10
91.99254289569792
 20
30.274809630066347
 30
0.0
 10
91.84333981001416
 20
30.742840143015925
 30
0.0
 10
91.57461937234211
 20
31.392174509890502
 30
0.0
 10
91.15556009222198
 20
32.20472291684418
 30
0.0
 10
90.55764230033189
 20
33.158561392049876
 30
0.0
 10
90.0091593254315
 20
33.88955770835504
 30
0.0
 10
89.0512707639121
 20
33.76854824175766
 30
0.0
 10
88.11610194754824
 20
33.528437700138674
 30
0.0
 10
87.87523306653004
 20
32.64686446417769
 30
0.0
 10
87.67043452515473
 20
31.539899658912915
 30
0.0
 10
87.57992207915024
 20
30.630145246439263
 30
0.0
 10
87.56910805827367
 20
29.927486829724835
 30
0.0
 10
87.60267606080525
 20
29.437397744929665
 30
0.0
 10
87.68414525384196
 20
28.90612778565978
 30
0.0
 10
87.67203258140955
 20
28.42480029664343
 30
0.0
 10
87.54183697105537
 20
28.15550403205667
 30
0.0
 10
85.37617420592082
 20
27.451837544266258
 30
0.0
 10
85.11255537172957
 20
27.593175739159165
 30
0.0
 10
84.81983881431727
 20
27.975458207411346
 30
0.0
 10
84.57347612895762
 20
28.45315102324497
 30
0.0
 10
84.31256607712076
 20
28.869372198438988
 30
0.0
 10
83.89080509571019
 20
29.431478476812266
 30
0.0
 10
83.28283876182985
 20
30.11428337630103
 30
0.0
 10
82.46649567409351
 20
30.88945915362288
 30
0.0
 10
81.75345290901939
 20
31.461087707303296
 30
0.0
 10
80.85575200868792
 20
31.105662777339127
 30
0.0
 10
80.0096763038476
 20
30.640528722495883
 30
0.0
 10
79.99561311023217
 20
29.72675007600046
 30
0.0
 10
80.0725396441491
 20
28.60363127951281
 30
0.0
 10
80.21111753526239
 20
27.699948944844483
 30
0.0
 10
80.3753872991054
 20
27.01667649675799
 30
0.0
 10
80.52978090030864
 20
26.550332484534376
 30
0.0
 10
80.74081205505965
 20
26.05601391239578
 30
0.0
 10
80.84878120343816
 20
25.586795912405734
 30
0.0
 10
80.78964718525023
 20
25.293581753523824
 30
0.0
 10
78.86701743770794
 20
24.07344381370106
 30
0.0
 10
78.57653129421394
 20
24.1447822711691
 30
0.0
 10
78.19794118182608
 20
24.442258985078695
 30
0.0
 10
77.84052106078718
 20
24.84367629426355
 30
0.0
 10
77.48429798091416
 20
25.181935424510154
 30
0.0
 10
76.93599724935551
 20
25.621494409629666
 30
0.0
 10
76.17732462241644
 20
26.131652658637883
 30
0.0
 10
75.19385007733615
 20
26.679458593089652
 30
0.0
 10
74.36105062140578
 20
27.05580185981482
 30
0.0
 10
73.5799432313431
 20
26.48829412199501
 30
0.0
 10
72.87612268621024
 20
25.82736263723671
 30
0.0
 10
73.08974882217323
 20
24.938794653208927
 30
0.0
 10
73.4435668543404
 20
23.870091550023723
 30
0.0
 10
73.80252772401899
 20
23.029262977759075
 30
0.0
 10
74.1315595991774
 20
22.408309019114082
 30
0.0
 10
74.39707768126875
 20
21.99501218884333
 30
0.0
 10
74.72441093416276
 20
21.568704857700034
 30
0.0
 10
74.94567780467682
 20
21.141079039338766
 30
0.0
 10
74.96132098649761
 20
20.84237071013049
 30
0.0
 10
73.40253015452322
 20
19.182427072387895
 30
0.0
 10
73.1034290144555
 20
19.179283334783847
 30
0.0
 10
72.66275355621048
 20
19.3732627383731
 30
0.0
 10
72.21673402019644
 20
19.673182015063503
 30
0.0
 10
71.78758071849256
 20
19.912225035179244
 30
0.0
 10
71.14719198825865
 20
20.20161761942506
 30
0.0
 10
70.28548325961417
 20
20.507074098936744
 30
0.0
 10
69.19667257982371
 20
20.793089528967545
 30
0.0
 10
68.29644428567534
 20
20.95050047719541
 30
0.0
 10
67.68101025591108
 20
20.20656852983462
 30
0.0
 10
67.16366850380726
 20
19.391368371084578
 30
0.0
 10
67.59156105356416
 20
18.583843043885366
 30
0.0
 10
68.20003889576881
 20
17.6367061803908
 30
0.0
 10
68.75682791240506
 20
16.9115637220764
 30
0.0
 10
69.22994761606806
 20
16.39194507380348
 30
0.0
 10
69.58990670144256
 20
16.057664385330924
 30
0.0
 10
70.01297450035271
 20
15.726154752647357
 30
0.0
 10
70.33363608176532
 20
15.36699041878024
 30
0.0
 10
70.4230735449494
 20
15.081556862142147
 30
0.0
 10
69.32606618934756
 20
13.08610789008475
 30
0.0
 10
69.03714367735361
 20
13.008679490004138
 30
0.0
 10
68.56207213298391
 20
13.086973143939186
 30
0.0
 10
68.05547822978762
 20
13.266549356954739
 30
0.0
 10
67.58035998651434
 20
13.391356314847016
 30
0.0
 10
66.8881212367108
 20
13.512398897839498
 30
0.0
 10
65.97752073492467
 20
13.59396065385658
 30
0.0
 10
64.85178789980085
 20
13.600214178106402
 30
0.0
 10
63.94069542196387
 20
13.528802099042824
 30
0.0
 10
63.52960473599616
 20
12.655189922384025
 30
0.0
 10
63.231248261855924
 20
11.736943113712982
 30
0.0
 10
63.846521162826804
 20
11.061200229520662
 30
0.0
 10
64.67142591441825
 20
10.295141698175827
 30
0.0
 10
65.39105797637013
 20
9.731248721354978
 30
0.0
 10
65.97853765754402
 20
9.345614934148827
 30
0.0
 10
66.41032019303066
 20
9.11135447252957
 30
0.0
 10
66.90253963221693
 20
8.89547250773438
 30
0.0
 10
67.30244757805711
 20
8.627337274372316
 30
0.0
 10
67.46005963786467
 20
8.373113330419162
 30
0.0
 10
66.89376476529866
 20
6.16754042170929
 30
0.0
 10
66.63317494538973
 20
6.020692470290919
 30
0.0
 10
66.15355780721904
 20
5.978380896351111
 30
0.0
 10
65.61822069490036
 20
6.0263306117929325
 30
0.0
 10
65.12699093664523
 20
6.029059427289484
 30
0.0
 10
64.42639807379823
 20
5.974146458375736
 30
0.0
 10
63.52412217735204
 20
5.826688665804507
 30
0.0
 10
62.432201121081455
 20
5.55278735234588
 30
0.0
 10
61.567491750702125
 20
5.257039329553693
 30
0.0
  0
LWPOLYLINE
  8
OpenJsCad
  90
31
  70
1
 10
94.83523256166004
 20
1.8887527404749624
 30
0.0
 10
95.24229938800859
 20
1.9842294026289558
 30
0.0
 10
95.66032154180184
 20
1.9929857184990085
 30
0.0
 10
96.07102944902614
 20
1.9146389950641343
 30
0.0
 10
96.45647320334064
 20
1.7526133600877267
 30
0.0
 10
96.79980706311741
 20
1.5139901113035126
 30
0.0
 10
97.0860256911856
 20
1.2091982297247492
 30
0.0
 10
97.30261996006924
 20
0.8515585831301443
 30
0.0
 10
97.44012366088351
 20
0.4567017402213098
 30
0.0
 10
97.49252722208689
 20
0.04188483976671167
 30
0.0
 10
97.45754035659458
 20
-0.3747626291714502
 30
0.0
 10
97.33669215831421
 20
-0.7750311729042076
 30
0.0
 10
97.1352642734046
 20
-1.1414271353688645
 30
0.0
 10
96.86206006699457
 20
-1.4579372548428238
 30
0.0
 10
96.52901987388346
 20
-1.7107285203210134
 30
0.0
 10
96.15069914861436
 20
-1.8887527404749624
 30
0.0
 10
95.74363232226581
 20
-1.984229402628956
 30
0.0
 10
95.32561016847256
 20
-1.9929857184990087
 30
0.0
 10
94.91490226124826
 20
-1.9146389950641343
 30
0.0
 10
94.52945850693376
 20
-1.7526133600877267
 30
0.0
 10
94.18612464715699
 20
-1.513990111303512
 30
0.0
 10
93.8999060190888
 20
-1.2091982297247488
 30
0.0
 10
93.68331175020516
 20
-0.8515585831301445
 30
0.0
 10
93.54580804939089
 20
-0.4567017402213105
 30
0.0
 10
93.49340448818751
 20
-0.04188483976671323
 30
0.0
 10
93.52839135367982
 20
0.37476262917145
 30
0.0
 10
93.64923955196019
 20
0.775031172904207
 30
0.0
 10
93.8506674368698
 20
1.1414271353688643
 30
0.0
 10
94.12387164327983
 20
1.4579372548428235
 30
0.0
 10
94.45691183639094
 20
1.7107285203210134
 30
0.0
 10
94.83523256166004
 20
1.8887527404749624
 30
0.0
  0
ENDSEC
  0
EOF
